<?xml version="1.0" standalone="no"?>
<!DOCTYPE svg PUBLIC "-//W3C//DTD SVG 20010904//EN"
 "http://www.w3.org/TR/2001/REC-SVG-20010904/DTD/svg10.dtd">
<svg version="1.0" xmlns="http://www.w3.org/2000/svg"
 width="631.000000pt" height="781.000000pt" viewBox="0 0 631.000000 781.000000"
 preserveAspectRatio="xMidYMid meet">

<g transform="translate(0.000000,781.000000) scale(0.100000,-0.100000)"
fill="#07612C" stroke="none">
<path d="M2920 7355 l0 -55 55 0 c57 0 61 -3 85 -65 l10 -27 -60 7 c-49 6 -65
4 -79 -9 -16 -15 -21 -15 -54 -1 -84 35 -193 8 -265 -66 -69 -70 -65 -160 7
-167 18 -2 40 3 49 10 16 13 67 38 77 38 17 0 86 -78 96 -108 11 -34 10 -37
-18 -61 -17 -15 -33 -36 -37 -47 -4 -12 -15 -29 -26 -39 -20 -18 -21 -18 -48
8 -46 45 -122 33 -244 -35 -37 -21 -71 -38 -76 -38 -5 0 -21 11 -36 25 -61 57
-8 185 77 185 34 0 87 -48 87 -79 0 -11 5 -23 11 -27 8 -4 9 1 4 17 -3 13 -9
32 -11 42 -3 9 -1 17 5 17 23 0 34 42 22 81 -13 43 -25 47 -59 23 -37 -26 -36
-9 2 24 73 64 55 193 -20 137 -28 -21 -40 -18 -54 14 -12 30 -40 44 -66 34
-23 -9 -44 -58 -44 -102 0 -32 8 -49 40 -86 60 -69 53 -122 -11 -89 -31 15
-33 15 -45 -1 -16 -21 -34 -11 -34 19 0 31 10 39 29 22 14 -13 16 -9 19 37 2
45 -1 56 -25 83 -15 16 -22 23 -16 14 24 -31 35 -78 24 -97 -6 -10 -11 -13
-11 -7 0 6 -12 28 -26 49 -14 21 -23 46 -21 57 3 10 2 18 -3 18 -4 0 -10 -9
-13 -20 -4 -16 -14 -20 -44 -20 -49 0 -53 -4 -42 -43 8 -31 72 -97 93 -97 6 0
21 -16 34 -35 l22 -35 -47 0 c-44 0 -49 3 -63 33 -9 20 -24 33 -37 35 -20 3
-23 -1 -23 -30 0 -36 30 -78 54 -78 22 0 47 -47 40 -75 -3 -14 -12 -25 -19
-25 -19 0 -45 28 -45 49 0 20 -43 71 -60 71 -6 0 2 -12 19 -26 17 -14 31 -29
31 -34 0 -12 -79 -17 -90 -6 -18 18 -12 66 8 66 13 0 14 2 3 9 -7 5 -10 14 -6
21 6 9 3 9 -14 0 -21 -11 -61 -6 -61 8 0 4 7 18 16 31 16 22 16 23 -5 16 -17
-5 -21 -2 -21 14 0 11 7 24 15 29 9 4 18 26 20 48 5 38 4 38 -4 6 -10 -40 -25
-57 -40 -48 -15 10 -14 32 3 65 13 25 13 31 -7 66 -28 50 -45 55 -59 17 -10
-27 -16 -30 -40 -25 -25 5 -28 3 -28 -19 0 -33 33 -74 65 -82 35 -9 65 -41 65
-71 0 -26 -10 -29 -45 -16 -11 5 -28 4 -37 0 -21 -11 -41 20 -36 54 3 22 3 22
30 -5 16 -15 28 -23 28 -18 0 11 -49 50 -63 50 -6 0 -8 -20 -4 -53 3 -36 1
-58 -9 -72 -8 -10 -14 -29 -14 -42 0 -20 4 -23 28 -17 28 6 72 50 72 72 0 14
19 16 39 3 12 -7 10 -14 -8 -36 -25 -33 -29 -95 -6 -95 23 0 65 46 65 70 0 11
7 20 15 20 11 0 15 -11 15 -38 0 -21 5 -43 11 -49 8 -8 8 -13 0 -17 -11 -7
-15 -48 -6 -58 10 -10 90 13 98 28 9 15 27 19 27 6 0 -15 -87 -72 -109 -72
-12 0 -24 7 -27 15 -8 19 -68 38 -94 30 -26 -8 -19 -41 13 -67 21 -16 21 -16
-13 -20 -21 -2 -34 -8 -33 -15 4 -19 -24 -16 -35 3 -5 10 -15 14 -21 10 -9 -6
-9 -11 0 -22 9 -11 7 -14 -15 -14 -29 0 -38 -30 -8 -30 12 -1 9 -5 -10 -16
-16 -8 -28 -19 -28 -25 0 -6 8 -6 21 2 15 8 24 8 32 0 18 -18 27 -12 27 19 0
24 5 31 28 36 15 4 32 12 37 19 6 6 21 16 35 22 24 10 25 9 25 -33 0 -58 14
-71 55 -51 29 15 31 15 36 -1 21 -67 53 -98 127 -119 l28 -8 -21 -28 -22 -27
-30 25 c-16 14 -34 25 -40 25 -5 0 -23 9 -38 20 l-28 20 -11 -32 c-6 -17 -11
-39 -11 -49 0 -23 -3 -23 -39 -4 -41 21 -55 1 -49 -70 l5 -54 -31 -4 c-25 -3
-22 -4 12 -5 49 -2 102 -26 102 -46 0 -29 -26 -37 -74 -25 -40 10 -50 9 -82
-8 -69 -35 -97 -140 -54 -196 49 -63 134 -56 195 16 l35 42 0 -39 c0 -113
-136 -173 -227 -100 -58 47 -75 86 -70 166 5 80 31 127 90 163 45 27 44 34 -1
11 -69 -36 -102 -100 -102 -201 0 -42 -4 -75 -10 -75 -16 0 -63 78 -56 92 4 7
13 24 21 38 8 14 14 36 14 50 -1 20 -2 21 -6 5 -7 -34 -26 -65 -39 -65 -43 0
-58 99 -22 145 l21 27 18 -43 c10 -24 18 -36 18 -26 1 24 -26 87 -37 87 -12 0
-44 -46 -57 -83 l-10 -28 -23 31 c-23 30 -23 32 -7 57 14 20 16 40 13 88 -3
34 -11 71 -17 83 l-12 22 -29 -30 c-17 -17 -30 -40 -30 -50 0 -11 -4 -20 -9
-20 -15 0 -21 31 -10 52 14 25 6 57 -21 86 -27 28 -34 28 -48 -3 -20 -44 -15
-72 16 -91 35 -20 73 -85 54 -92 -7 -2 1 -13 20 -26 39 -26 47 -51 20 -65 -44
-24 -132 30 -132 81 0 18 5 19 38 14 l37 -5 -43 15 c-24 9 -46 13 -49 10 -11
-11 16 -81 43 -110 26 -27 31 -28 85 -23 53 6 58 5 73 -18 l16 -25 -40 0 c-35
0 -40 -3 -40 -24 0 -28 33 -72 60 -81 17 -5 19 -12 14 -48 -4 -23 -14 -51 -23
-61 -9 -11 -10 -16 -3 -12 7 4 24 -2 38 -13 36 -28 64 -27 64 2 0 26 -35 87
-50 87 -18 0 -10 29 11 40 30 17 46 6 71 -45 19 -39 20 -49 10 -78 -7 -19 -9
-48 -6 -65 5 -27 3 -32 -18 -37 -20 -5 -24 -11 -20 -33 2 -19 -4 -34 -22 -51
-49 -46 -80 6 -31 54 13 14 20 25 15 25 -39 0 -69 -103 -34 -117 23 -9 67 29
80 68 9 26 17 34 35 34 17 0 25 -6 27 -22 2 -13 -1 -23 -7 -23 -16 0 -41 -55
-41 -91 0 -25 9 -41 40 -69 22 -20 40 -43 40 -52 0 -8 -9 -42 -21 -75 -20 -59
-22 -62 -57 -65 -33 -3 -37 -7 -45 -40 -16 -69 -76 -89 -98 -31 -15 39 -11
150 7 184 57 112 -67 116 -135 5 -23 -37 -75 -182 -92 -254 -6 -29 -6 -56 1
-82 9 -33 16 -41 43 -48 43 -11 44 -44 2 -53 -29 -6 -29 -7 8 -8 37 -1 37 -1
37 39 0 36 -3 40 -24 40 -30 0 -56 34 -56 71 0 33 44 188 71 249 28 62 86 120
121 120 46 0 38 -46 -20 -122 -67 -87 -72 -99 -78 -176 -3 -37 -7 -82 -9 -100
-3 -28 -2 -32 10 -22 8 6 19 9 25 5 5 -3 10 -1 10 5 0 6 -7 13 -15 16 -21 8
-8 25 13 17 13 -5 12 -1 -6 19 -23 25 -19 47 5 27 19 -16 16 1 -4 23 -9 10
-13 21 -9 25 4 4 16 -3 27 -17 l20 -25 -15 32 c-9 18 -16 42 -16 55 1 23 1 23
16 3 13 -18 14 -17 8 13 -9 46 10 40 26 -9 14 -42 51 -79 80 -79 20 0 51 34
68 73 13 31 17 32 53 13 l26 -13 6 57 c9 80 34 130 65 130 28 0 28 1 -12 -134
-14 -48 -26 -103 -26 -122 0 -25 -7 -38 -25 -50 -14 -9 -25 -25 -25 -35 0 -10
-13 -25 -28 -33 -16 -8 -34 -22 -41 -30 -22 -27 -50 -19 -68 19 -19 39 -37 49
-64 35 -49 -27 -71 -134 -45 -223 18 -61 36 -77 86 -77 23 0 33 6 40 24 16 44
41 48 81 12 20 -17 44 -45 53 -63 9 -18 22 -36 30 -40 11 -6 13 -23 8 -83 -7
-71 -8 -75 -33 -78 -30 -4 -44 10 -56 58 -8 31 -13 35 -45 38 -46 4 -54 -9
-61 -110 -6 -85 -46 -193 -69 -186 -8 3 -15 35 -20 89 -8 114 -20 151 -74 242
l-47 79 17 34 c30 63 16 94 -38 80 -17 -4 -25 -16 -32 -47 -12 -56 -38 -72
-65 -40 -10 13 -19 36 -19 51 0 15 -9 35 -20 45 -26 23 -26 57 0 73 15 9 20
23 20 58 0 61 14 88 40 74 11 -6 20 -18 21 -28 0 -11 2 -13 6 -4 6 15 -24 52
-43 52 -18 0 -30 -25 -38 -79 -4 -24 -16 -55 -27 -69 -21 -28 -19 -63 5 -92 7
-8 18 -34 25 -58 23 -82 88 -78 108 6 6 27 15 38 31 40 31 5 38 -22 13 -54
-28 -36 -27 -43 16 -105 54 -78 73 -140 83 -257 10 -122 20 -141 56 -97 31 39
52 102 63 195 7 50 15 78 27 87 26 19 51 -1 59 -46 6 -36 9 -39 48 -47 37 -8
42 -12 45 -39 3 -40 22 -143 29 -163 5 -11 2 -14 -9 -9 -10 3 -24 -3 -35 -15
-10 -11 -35 -29 -56 -39 -32 -17 -39 -27 -54 -79 -17 -61 -46 -88 -64 -59 -16
25 -9 49 21 81 17 17 30 39 30 48 0 30 -22 80 -35 80 -14 0 -65 -48 -65 -61 0
-5 -8 -9 -17 -9 -16 -1 -15 -2 2 -12 31 -18 44 -40 45 -77 0 -26 -3 -32 -16
-27 -9 3 -19 6 -23 6 -22 0 -61 51 -61 80 0 44 -20 37 -21 -7 -1 -21 0 -42 1
-48 2 -5 5 -27 7 -49 3 -38 3 -38 -19 -24 -28 18 -35 60 -14 78 9 7 16 17 16
22 0 6 -7 4 -16 -3 -13 -11 -17 -10 -25 4 -6 9 -23 24 -39 32 -27 14 -29 14
-35 -5 -7 -23 3 -79 17 -97 7 -9 4 -19 -13 -33 -24 -20 -24 -20 -5 -35 23 -17
78 -20 106 -5 15 8 21 6 30 -9 15 -29 13 -31 -19 -25 -34 7 -65 -8 -109 -52
-41 -42 -58 -82 -37 -90 23 -9 20 -101 -5 -149 -34 -67 -26 -78 36 -49 28 13
39 14 62 5 20 -8 36 -9 54 -2 44 17 54 -8 26 -66 -26 -55 -52 -67 -62 -29 -6
26 -45 44 -65 31 -14 -8 -14 -41 -1 -66 9 -15 7 -19 -6 -19 -8 0 -23 8 -32 18
-10 10 -13 12 -8 5 22 -33 -22 -56 -65 -33 -27 15 -24 28 13 45 l33 15 -30 -6
c-16 -3 -38 -13 -48 -23 -18 -18 -18 -19 16 -40 19 -11 39 -21 46 -21 6 0 11
-8 11 -19 0 -10 5 -33 11 -50 l11 -32 29 27 c22 21 29 37 29 66 0 21 5 38 10
38 6 0 10 -16 10 -35 0 -45 25 -58 52 -26 27 34 22 47 -6 14 -21 -24 -25 -26
-31 -11 -9 24 8 72 27 76 9 2 18 -5 21 -15 4 -15 5 -14 6 4 2 43 20 33 27 -15
8 -62 20 -84 33 -62 6 8 12 12 14 10 2 -3 9 -55 15 -115 6 -61 16 -122 22
-135 10 -24 10 -24 5 5 -2 17 -8 78 -11 136 -7 104 -6 108 22 164 l29 57 3
-41 c2 -22 -1 -80 -7 -128 -11 -104 -3 -156 38 -246 26 -57 35 -67 56 -67 14
0 25 -2 25 -5 0 -3 -14 -24 -30 -47 -17 -22 -30 -50 -30 -62 0 -48 -12 -68
-36 -63 -13 2 -21 1 -19 -3 8 -13 -28 -52 -61 -66 -18 -8 -48 -14 -65 -14 -27
0 -30 2 -19 15 7 8 21 15 31 15 10 0 21 5 25 12 5 8 -2 9 -25 5 -32 -7 -32 -7
-29 31 3 36 4 37 47 40 25 2 50 -2 60 -10 9 -7 5 -1 -10 14 -24 23 -34 26 -65
21 l-36 -6 7 52 c6 44 5 51 -10 51 -13 0 -15 -3 -7 -13 7 -8 8 -24 3 -42 -5
-22 -15 -31 -37 -35 -16 -4 -39 -12 -51 -19 -21 -10 -23 -9 -24 11 -1 15 -4
11 -8 -11 -8 -45 -26 -50 -46 -12 -11 23 -13 36 -5 50 15 29 12 39 -5 17 -20
-26 -19 -44 4 -86 16 -31 17 -38 5 -61 -14 -28 -33 -39 -66 -39 -20 0 -20 1
-4 28 l17 27 -20 -24 c-12 -13 -21 -29 -21 -37 0 -17 43 -19 72 -3 19 10 20 9
14 -17 -3 -16 -8 -49 -9 -73 -5 -68 -67 -109 -67 -45 0 14 12 36 28 51 22 21
23 24 5 14 -48 -25 -59 -103 -16 -109 17 -3 28 6 44 32 20 34 22 35 43 20 21
-13 25 -13 37 2 7 9 12 31 12 49 -1 29 3 35 27 40 16 3 33 12 39 19 13 16 72
7 78 -11 2 -6 -6 -17 -19 -24 -26 -14 -38 -28 -38 -48 0 -10 11 -12 46 -8 l46
5 -6 -30 c-3 -17 -6 -39 -6 -49 0 -11 -6 -19 -13 -19 -7 0 -18 -13 -24 -29 -6
-16 -25 -37 -43 -46 l-33 -17 5 26 c7 34 2 33 -17 -4 -22 -42 -19 -50 14 -40
38 11 81 39 81 54 0 7 6 20 13 30 11 16 17 16 55 4 48 -15 52 -28 20 -78 l-23
-35 -3 27 c-2 15 2 37 9 50 11 21 11 22 -4 9 -21 -17 -33 -79 -19 -93 19 -19
72 44 72 86 0 32 4 38 27 35 21 -3 39 71 23 100 -7 15 -6 27 7 49 14 25 25 31
61 34 24 2 46 0 48 -4 3 -5 15 -8 26 -8 20 0 20 1 4 19 -36 39 -39 119 -10
241 4 19 3 22 -5 10 -6 -8 -16 -47 -23 -87 l-12 -72 -24 20 c-14 10 -33 19
-43 19 -35 0 -14 79 36 137 l35 41 -29 12 c-18 7 -32 22 -36 37 -8 34 34 79
83 88 30 6 39 3 54 -15 24 -30 23 -50 -7 -101 -28 -49 -34 -77 -8 -39 27 42
66 80 81 80 8 0 -1 -19 -24 -47 l-38 -48 39 36 c22 20 50 42 62 48 26 13 73
15 73 2 0 -16 -42 -62 -79 -86 -27 -17 -43 -40 -65 -91 -15 -37 -29 -83 -29
-102 -2 -70 87 -105 169 -66 41 20 61 45 75 96 8 30 19 43 57 64 26 15 69 40
96 55 l48 29 46 -30 c126 -83 232 -60 314 69 23 36 28 56 28 104 0 52 2 58 18
52 79 -34 131 -50 217 -70 l100 -22 -3 -31 c-2 -22 3 -34 20 -46 18 -13 21
-20 12 -33 -17 -28 -28 -24 -47 16 -10 22 -24 42 -32 44 -8 4 -4 -9 11 -30 34
-50 32 -73 -6 -73 -23 0 -33 7 -45 31 -19 37 -50 36 -50 -1 0 -49 108 -69 158
-30 28 22 43 25 52 9 17 -27 -81 -88 -143 -89 -65 0 -129 71 -116 127 8 34 32
63 53 64 10 0 11 2 4 6 -17 6 -73 -34 -73 -52 0 -11 -6 -12 -26 -5 -48 18
-123 1 -166 -38 -40 -36 -78 -98 -78 -127 0 -19 -7 -19 -27 1 -9 9 -22 12 -32
8 -9 -4 -31 -9 -48 -12 -18 -2 -33 -7 -33 -11 1 -11 73 -61 88 -61 9 0 23 7
33 16 17 15 19 14 33 -21 9 -21 40 -78 70 -129 30 -50 62 -108 70 -128 l16
-37 22 22 c13 12 33 29 46 37 13 8 28 31 35 50 14 42 41 81 83 124 18 17 34
43 38 58 6 24 51 67 60 57 2 -2 6 -20 10 -40 6 -33 4 -37 -39 -67 -25 -17 -50
-43 -56 -56 -16 -35 -4 -74 24 -78 31 -4 26 -22 -9 -28 -25 -4 -29 -10 -32
-41 -4 -44 16 -63 65 -63 34 0 35 -1 30 -33 -7 -43 6 -49 49 -24 46 27 55 27
88 -8 46 -48 78 -57 131 -37 41 16 96 66 108 98 4 10 7 11 18 1 18 -17 54 -16
72 2 8 7 26 17 41 21 34 8 34 40 1 66 -28 22 -33 48 -10 48 9 0 27 11 41 25
27 27 44 25 44 -4 0 -11 9 -29 20 -42 l19 -24 1 23 c0 38 58 86 130 111 97 33
130 68 130 142 0 64 -58 149 -102 149 -11 0 -33 8 -49 17 -22 13 -27 22 -22
38 4 11 7 34 8 50 0 25 -3 30 -22 27 -20 -3 -23 1 -23 31 l0 34 -86 -34 c-91
-37 -186 -53 -198 -35 -4 7 4 14 21 18 85 19 187 49 251 75 41 16 75 29 78 29
2 0 4 -17 4 -37 0 -50 39 -132 79 -165 38 -33 102 -44 160 -28 24 6 44 10 46
8 1 -2 5 -20 9 -40 6 -32 4 -37 -15 -43 -12 -4 -32 -1 -46 6 -23 12 -27 11
-45 -10 -28 -36 -21 -75 15 -79 24 -3 30 2 40 27 7 18 19 31 29 31 9 0 28 5
41 11 24 11 24 11 6 46 -12 23 -15 42 -10 56 13 34 26 30 44 -12 10 -22 39
-63 64 -91 41 -46 45 -53 34 -76 -15 -34 -15 -34 20 -22 37 13 46 6 31 -27
-16 -36 -16 -71 1 -57 6 5 28 12 47 13 33 4 35 2 33 -25 -1 -16 -10 -37 -19
-47 -16 -18 -16 -19 13 -19 23 0 39 9 62 35 17 20 31 40 31 45 0 6 9 10 20 10
11 0 29 9 40 20 26 26 30 25 30 -9 0 -77 -48 -143 -120 -167 l-45 -14 48 5
c44 4 47 3 47 -20 0 -37 17 -39 51 -5 28 28 31 35 28 88 -5 98 -1 122 19 122
19 -1 62 -62 62 -89 0 -10 -7 -32 -16 -49 -20 -41 -15 -106 9 -110 12 -3 22 7
32 32 14 32 14 43 1 93 -14 54 -14 57 10 105 17 34 30 48 42 46 22 -4 27 -35
9 -56 -8 -9 -20 -40 -26 -68 -10 -43 -10 -57 3 -88 8 -20 19 -36 24 -36 26 0
30 85 6 119 -13 18 -14 28 -5 47 16 35 45 18 45 -27 1 -29 5 -34 29 -37 23 -3
27 0 27 22 0 14 5 26 10 26 27 0 -20 -148 -54 -167 -22 -12 -29 -55 -13 -77
14 -19 15 -18 36 3 19 19 22 30 16 58 -5 27 -3 34 7 31 11 -4 22 -21 48 -78
10 -21 46 -24 54 -5 7 18 -9 55 -24 55 -6 0 -5 -9 2 -20 7 -10 9 -22 5 -26 -9
-9 -37 15 -37 33 0 7 -9 23 -20 35 -11 12 -20 29 -20 38 0 18 29 61 30 44 0
-21 119 -106 142 -102 32 4 34 34 3 54 -20 13 -31 15 -49 6 -20 -9 -28 -6 -60
25 -53 51 -49 75 9 53 27 -10 27 -10 23 32 -3 24 -8 50 -12 58 -9 21 16 53 35
45 22 -8 62 -82 49 -90 -18 -11 -11 -47 17 -83 26 -34 27 -35 35 -13 5 16 13
21 24 17 39 -15 64 -18 64 -7 0 6 -7 11 -15 11 -8 0 -29 13 -47 30 -31 28 -32
29 -10 30 13 0 34 -11 47 -25 17 -16 25 -19 25 -10 0 16 -32 36 -73 44 -32 7
-39 24 -12 30 11 2 30 10 43 19 23 15 23 16 6 29 -10 7 -23 13 -28 13 -6 0 -5
-4 3 -9 7 -5 11 -13 7 -19 -12 -19 -46 -20 -69 -2 -23 19 -22 21 28 34 11 3 1
4 -22 2 -33 -3 -46 1 -62 18 -25 27 -19 36 26 36 24 0 44 10 71 34 20 19 34
38 30 42 -12 11 -83 -13 -103 -36 -10 -11 -24 -20 -32 -20 -11 0 -11 4 1 23 9
14 11 29 6 42 -9 20 -9 20 -9 0 -1 -29 -20 -45 -52 -45 -31 0 -42 11 -33 34 4
10 18 16 38 16 57 0 98 60 61 90 -13 10 -11 16 9 44 13 17 29 41 35 54 l12 23
-41 -21 c-28 -14 -55 -20 -86 -18 l-44 3 47 35 c26 19 54 48 61 63 16 32 45
180 40 204 -2 10 -28 -18 -70 -76 -72 -97 -93 -113 -77 -59 10 38 11 105 0
131 -4 11 -7 -11 -7 -50 0 -68 -15 -113 -53 -157 -13 -17 -11 -16 13 2 20 15
32 19 36 12 4 -7 28 18 59 58 66 90 81 103 81 71 0 -100 -79 -209 -150 -209
-12 0 -20 -3 -18 -7 51 -98 59 -164 28 -228 -27 -55 -51 -73 -111 -81 -39 -5
-47 -3 -72 21 -16 17 -27 39 -27 55 0 31 32 65 55 57 17 -7 20 -23 5 -32 -17
-10 -1 -25 26 -25 14 0 36 12 51 26 22 22 25 32 21 74 -12 119 -119 178 -188
105 l-23 -24 34 5 c46 8 85 -22 74 -55 -6 -20 -12 -22 -39 -17 -26 5 -37 2
-52 -15 -19 -22 -19 -22 5 -10 35 19 50 -1 28 -38 -28 -48 -17 -99 30 -137 11
-9 11 -17 2 -38 -15 -33 -33 -33 -47 -1 -8 17 -20 25 -36 25 -31 0 -43 33 -25
68 12 21 12 26 1 30 -7 2 -17 15 -22 28 -5 13 -16 24 -25 24 -12 0 -15 12 -15
56 0 38 -6 63 -18 78 -13 17 -16 36 -14 72 l4 48 24 -29 23 -29 14 34 c8 19
20 59 27 88 16 68 32 56 38 -28 5 -70 17 -73 47 -14 11 21 23 41 28 42 12 6 8
29 -8 42 -13 10 -15 9 -15 -11 -1 -13 -7 -35 -14 -48 l-13 -23 -6 31 c-8 37
-35 81 -51 81 -6 0 -17 -28 -23 -62 -15 -80 -30 -96 -66 -68 l-26 21 -6 -23
c-3 -13 -5 -32 -4 -43 5 -49 -1 -62 -31 -68 -22 -5 -35 -17 -51 -49 -12 -24
-28 -51 -37 -60 -20 -24 -8 -23 39 4 40 22 48 33 28 40 -7 2 -2 15 13 32 21
25 27 27 46 17 26 -14 35 -43 30 -97 l-3 -39 -60 -1 c-33 0 -74 -4 -91 -8 -28
-6 -33 -3 -59 34 -30 44 -63 130 -57 149 2 6 9 11 15 11 11 0 20 8 81 68 13
12 31 22 40 22 9 0 16 6 16 13 0 7 9 20 20 30 11 9 20 22 20 29 0 9 -3 8 -10
-2 -9 -13 -11 -13 -20 0 -5 8 -10 20 -10 26 0 6 -11 21 -25 34 -14 13 -25 29
-25 37 0 16 28 17 50 0 9 -6 5 -2 -8 11 -22 21 -26 22 -47 8 -21 -14 -23 -13
-34 7 -10 19 -10 19 -6 2 9 -37 -9 -48 -33 -20 l-22 26 22 9 c19 7 19 9 5 9
-14 1 -2 19 44 71 49 54 69 70 90 70 43 0 147 36 182 63 18 14 41 43 52 66 12
27 25 41 37 41 10 0 18 -6 18 -13 0 -7 13 -24 28 -37 16 -14 31 -31 33 -38 2
-7 14 -14 26 -16 12 -3 31 -10 42 -16 12 -6 36 -8 56 -4 26 5 35 3 36 -7 0 -8
4 -3 10 9 5 13 18 26 29 29 11 3 23 16 26 29 3 13 12 24 20 24 8 0 14 6 14 13
0 7 -11 13 -26 12 -25 0 -26 3 -28 48 -1 40 2 47 16 44 10 -3 15 0 12 8 -3 6
2 18 11 25 12 10 24 10 60 0 50 -14 69 -10 84 18 8 15 7 23 -4 32 -13 11 -14
10 -9 -5 13 -32 -41 -46 -91 -23 -37 17 -31 25 28 36 l52 10 -57 -1 c-54 -1
-57 -3 -62 -30 -4 -20 -15 -32 -41 -42 -19 -8 -36 -15 -38 -15 -2 0 -2 23 1
50 4 42 1 55 -17 74 -19 20 -19 24 -6 42 8 10 15 32 15 47 0 23 4 28 22 25 16
-2 28 -18 45 -62 12 -32 24 -61 27 -63 6 -6 73 24 81 37 4 6 -1 21 -12 32 -12
15 -14 22 -6 25 37 13 78 51 81 74 2 21 -3 29 -27 38 -27 12 -29 17 -28 54 2
38 0 42 -23 45 -19 2 -37 -7 -63 -33 -33 -32 -40 -35 -77 -29 -30 5 -47 2 -67
-12 -28 -18 -32 -20 -65 -22 -14 -2 -13 -6 7 -27 31 -30 34 -84 5 -110 -17
-15 -17 -19 -5 -32 33 -33 -16 -110 -62 -98 -22 5 -23 3 -23 -43 0 -36 -5 -54
-19 -66 -23 -21 -41 -14 -42 17 -1 53 -15 53 -14 -1 0 -49 -4 -64 -28 -96 -47
-61 -97 -88 -174 -93 l-68 -5 -130 -132 c-71 -73 -161 -154 -199 -181 l-70
-49 33 -7 c42 -9 42 -9 31 -50 -9 -29 -7 -36 10 -49 16 -12 18 -18 8 -28 -29
-29 -95 6 -122 63 -31 64 -15 94 126 225 140 132 242 251 325 379 62 96 92
118 137 101 29 -11 36 -21 46 -67 16 -71 -14 -118 -91 -142 l-34 -11 35 5 c74
11 113 62 107 139 -5 58 -29 83 -88 92 l-38 6 33 67 c28 54 40 68 67 76 46 14
58 37 36 74 -33 57 -1 190 55 225 19 12 43 2 105 -45 38 -29 46 -31 75 -22
l33 10 -37 0 c-47 -1 -88 34 -88 74 0 15 11 41 25 57 35 41 31 52 -5 17 -20
-19 -30 -39 -30 -58 0 -24 -3 -28 -17 -22 -39 16 -54 17 -68 5 -19 -15 -19
-14 0 79 9 42 21 134 28 205 l12 130 31 8 c17 4 39 17 49 28 30 33 61 26 75
-16 14 -42 48 -61 79 -45 11 7 21 18 21 26 0 8 15 21 34 29 18 8 37 19 40 25
10 16 24 13 29 -6 4 -13 5 -12 6 5 3 56 68 35 99 -32 38 -80 94 -87 112 -13 6
23 17 54 25 69 20 36 19 61 -5 83 -11 10 -22 33 -26 51 -14 74 -75 85 -110 19
-21 -41 -58 -63 -88 -52 -25 10 -20 46 8 57 56 21 59 139 6 302 -30 95 -61
149 -83 147 -8 0 -8 -2 1 -6 6 -2 12 -15 12 -29 0 -20 -21 -41 -57 -59 -2 -1
7 -26 19 -56 14 -37 23 -89 27 -166 5 -87 11 -116 25 -132 11 -12 15 -27 11
-40 -5 -17 0 -21 28 -26 19 -4 42 -5 53 -3 16 2 19 -3 19 -37 0 -39 -1 -40
-32 -37 -33 3 -93 -21 -93 -38 0 -6 -9 -10 -20 -10 -18 0 -20 7 -20 73 0 49
-6 85 -20 115 -36 80 -120 75 -120 -8 0 -31 -26 -35 -59 -9 -15 13 -42 31 -58
40 -27 14 -31 23 -37 75 -5 50 -56 286 -71 335 -4 13 3 16 38 17 l43 2 24 -90
24 -90 33 0 c27 0 37 -6 53 -32 11 -18 20 -28 20 -22 0 25 -42 64 -69 64 -27
0 -29 4 -51 86 -21 78 -22 87 -7 101 14 15 19 15 50 -1 19 -9 42 -16 51 -16
15 0 15 10 1 83 -4 22 0 21 33 -3 33 -24 104 -40 85 -19 -7 7 -23 14 -35 16
-13 2 -40 21 -60 43 -49 53 -73 54 -47 3 21 -40 25 -93 9 -93 -42 0 -122 76
-144 135 -8 22 -15 32 -15 22 -1 -27 23 -78 53 -114 l27 -32 -30 -16 c-97 -50
-240 34 -177 104 17 19 10 71 -10 71 -29 0 -85 35 -90 57 -9 36 1 50 43 56 21
4 64 23 96 43 52 33 61 43 98 122 43 92 69 121 107 122 13 0 22 6 22 15 0 23
81 100 119 113 32 11 32 11 27 -16 -3 -15 -8 -49 -11 -77 -4 -27 -11 -63 -17
-78 -11 -27 -53 -57 -81 -57 -8 0 -17 -9 -20 -19 -2 -11 -23 -29 -46 -40 -22
-12 -45 -30 -51 -40 -13 -25 -13 -41 1 -18 5 9 29 27 52 38 23 12 51 32 62 44
29 34 55 38 93 15 38 -24 52 -54 52 -118 l1 -47 16 35 16 35 8 -35 7 -35 -1
40 c-2 31 -6 40 -19 39 -10 -1 -19 8 -23 23 -8 33 -1 39 32 27 19 -6 30 -21
41 -51 16 -50 35 -59 21 -11 -11 41 -12 38 6 38 9 0 23 -16 32 -35 18 -37 39
-48 28 -15 -5 15 0 26 17 40 24 21 19 26 -11 10 -23 -12 -71 18 -50 31 8 5 24
9 37 9 12 0 22 5 22 10 0 14 -13 13 -60 -6 -29 -12 -44 -14 -52 -6 -7 7 2 17
32 32 61 31 43 35 -24 5 -76 -33 -97 -33 -66 0 13 14 18 25 12 25 -6 0 -14 -4
-17 -10 -6 -10 -58 -14 -67 -5 -12 12 44 106 70 118 l27 11 -33 4 c-32 3 -33
5 -26 35 3 18 13 44 20 60 13 24 13 27 -3 27 -10 0 -42 -11 -70 -25 l-53 -24
0 49 c0 28 -2 50 -5 50 -11 0 -61 -34 -92 -64 -18 -16 -33 -25 -33 -19 0 14
-55 49 -90 58 -24 5 -25 4 -26 -40 -2 -53 -9 -65 -27 -43 -21 28 -81 58 -115
58 -25 0 -40 8 -59 31 -21 25 -32 30 -57 26 -20 -3 -40 2 -58 16 -21 16 -35
18 -68 13 -27 -4 -47 -2 -56 5 -21 17 -17 29 9 29 32 1 104 35 115 57 5 10 12
34 16 53 l6 35 -15 -39 c-21 -55 -39 -72 -91 -85 -35 -9 -51 -8 -80 4 -31 13
-35 18 -32 47 3 28 8 33 39 41 43 10 69 48 53 75 -14 21 -77 27 -115 11 -16
-6 -41 -25 -55 -42 -21 -25 -25 -38 -21 -68 8 -62 48 -127 132 -218 126 -134
227 -262 221 -278 -3 -8 -6 -19 -6 -24 0 -19 -16 -8 -40 28 -14 20 -94 108
-177 195 -188 195 -225 260 -202 354 18 70 89 126 178 140 56 9 123 -17 161
-64 16 -20 30 -31 30 -25 0 7 -4 15 -10 18 -16 10 -12 23 11 30 15 5 25 1 36
-15 16 -22 70 -50 98 -50 8 0 15 8 15 18 0 13 -2 14 -9 3 -7 -10 -13 -11 -32
-1 -35 18 -59 41 -53 51 10 17 53 9 68 -13 9 -12 16 -17 16 -11 0 7 -4 15 -10
18 -20 13 -9 25 23 25 40 0 53 -9 54 -38 3 -49 56 -98 91 -85 20 8 14 22 -8
16 -24 -6 -49 12 -61 46 -13 32 5 85 38 111 31 24 68 27 59 4 -3 -8 -2 -12 4
-9 23 14 9 35 -24 35 -26 0 -41 -8 -65 -36 -22 -24 -38 -34 -54 -32 -19 3 -22
8 -19 40 5 50 -3 60 -34 47 -22 -8 -29 -5 -46 16 -25 32 -34 32 -53 -5 -13
-25 -13 -35 -2 -69 13 -37 13 -40 -7 -45 -12 -3 -34 -6 -50 -6 l-29 0 27 25
c14 13 26 31 26 39 0 27 -22 64 -46 77 -34 18 -40 46 -17 78 18 23 28 26 84
29 l65 3 17 -36 c15 -31 21 -35 57 -35 35 0 40 3 39 23 0 12 -3 16 -6 10 -7
-19 -48 -16 -66 5 -29 32 -21 45 22 38 48 -7 103 10 99 32 -2 9 -17 23 -33 32
-40 20 -39 19 -33 26 4 3 16 1 27 -5 41 -23 118 31 79 55 -7 4 -8 3 -4 -5 19
-30 -49 -56 -73 -28 -14 18 5 37 39 38 16 1 19 3 8 6 -26 6 -22 20 7 27 30 8
52 43 36 59 -7 7 -21 7 -45 0 -38 -12 -46 -9 -46 18 0 10 -9 23 -19 29 -16 8
-23 5 -40 -16 -27 -35 -26 -53 4 -94 30 -40 30 -54 5 -100 l-19 -35 4 40 c3
22 2 31 -1 20 -13 -48 -13 -49 -35 -29 -17 15 -20 27 -16 58 6 45 -9 36 -19
-11 -5 -26 -1 -37 21 -59 31 -31 22 -44 -31 -44 -28 0 -31 3 -27 28 3 24 2 25
-6 6 -20 -46 -49 -36 -37 12 5 17 12 24 21 20 9 -3 12 0 8 10 -8 21 -20 17
-39 -11 -9 -15 -14 -34 -10 -48 4 -18 -1 -27 -24 -41 -29 -17 -48 -55 -36 -74
5 -8 -11 -132 -18 -139 -2 -2 -10 -1 -19 3 -11 4 -14 15 -11 42 l5 37 -13 -35
c-12 -33 -16 -35 -68 -41 -91 -11 -139 20 -140 89 0 20 -2 22 -22 11 -14 -8
-18 -14 -10 -17 6 -2 10 -8 6 -13 -3 -5 0 -9 7 -9 7 0 10 -3 7 -6 -6 -5 -61
16 -87 34 -36 25 71 122 136 124 50 1 133 -19 153 -37 11 -10 24 -36 29 -59
l10 -41 -5 48 c-3 26 -1 47 4 47 11 0 88 148 80 155 -2 3 -27 -2 -54 -10 -63
-19 -62 -19 -76 10 -14 32 -31 32 -52 0 -12 -18 -15 -36 -11 -59 8 -40 -3 -50
-45 -41 -35 8 -40 37 -14 86 9 18 13 42 9 57 -4 22 -1 29 17 37 29 13 52 59
44 91 -8 29 -16 30 -50 3 -20 -16 -26 -29 -26 -61 0 -39 -1 -40 -19 -24 -12
11 -17 26 -14 44 3 25 3 26 -6 5 -13 -29 -17 -29 -37 2 -21 31 -10 73 13 53
15 -12 15 -10 4 10 -15 27 -35 17 -45 -23 -7 -27 18 -75 38 -75 7 0 25 -13 41
-30 l28 -30 -31 9 c-20 6 -34 6 -38 0 -7 -11 21 -58 39 -65 8 -3 11 -19 9 -45
-4 -36 -9 -43 -39 -55 -47 -20 -55 -11 -30 36 17 29 19 42 11 50 -17 17 -52
-4 -60 -36 -4 -14 -17 -30 -30 -34 -30 -12 -32 -45 -4 -60 21 -11 17 -32 -14
-63 -13 -13 -2 -21 85 -66 54 -29 99 -56 99 -60 0 -4 -13 -20 -30 -36 -41 -39
-60 -85 -60 -145 0 -37 -4 -50 -12 -47 -15 4 -17 101 -4 130 5 10 4 17 -2 17
-5 0 -16 -29 -23 -65 -7 -35 -17 -61 -22 -58 -9 5 -6 38 9 108 5 22 4 27 -5
19 -6 -6 -14 -34 -18 -62 -3 -29 -10 -52 -14 -52 -12 0 -11 37 2 83 18 66 4
63 -19 -4 l-22 -64 4 50 c2 28 7 59 11 69 5 12 5 17 -2 13 -5 -3 -15 -31 -22
-62 -14 -62 -37 -78 -26 -17 17 93 16 90 1 57 -9 -16 -15 -42 -16 -57 0 -16
-4 -28 -10 -28 -15 0 -12 66 5 107 8 19 15 38 15 42 -1 15 -34 -58 -45 -99
-10 -38 -13 -42 -19 -23 -4 12 1 44 12 77 10 31 17 56 15 56 -8 0 -43 -86 -43
-107 0 -13 -4 -23 -10 -23 -15 0 -12 24 10 82 11 28 18 54 15 56 -7 7 -45 -77
-45 -100 0 -18 -2 -20 -10 -8 -17 27 23 126 76 190 24 28 32 31 63 26 25 -4
31 -2 21 4 -27 17 -67 11 -91 -15 -31 -32 -35 -31 -48 5 -6 17 -21 34 -35 40
-44 16 -27 82 34 134 39 32 54 33 101 0 47 -32 88 -29 108 7 30 53 -26 151
-112 195 -48 26 -170 31 -203 10 -24 -17 -27 -17 -44 -1 -16 14 -30 16 -75 10
-50 -6 -55 -5 -55 13 0 10 10 31 23 45 19 22 31 27 70 27 l47 0 0 55 0 55 -58
0 c-55 0 -112 -16 -112 -32 0 -17 -56 -7 -70 12 -12 17 -26 20 -87 20 l-73 0
0 -55z m130 27 c0 -13 48 -32 81 -32 16 0 39 9 51 20 16 14 36 20 70 20 l48 0
0 -34 c0 -34 -1 -35 -47 -41 -27 -3 -56 -10 -65 -16 -23 -12 -128 -12 -128 1
0 6 -27 10 -60 10 l-60 0 0 34 c0 19 6 37 13 39 21 9 97 8 97 -1z m113 -122
c-4 -16 -13 -20 -47 -19 l-41 2 35 7 c19 4 26 8 15 9 -11 1 -27 6 -35 11 -11
7 -2 10 32 10 41 0 46 -2 41 -20z m-3 -40 c0 -5 -8 -10 -17 -11 -11 0 -13 -3
-5 -6 23 -9 13 -33 -14 -33 -18 0 -24 5 -22 18 1 9 -1 23 -5 30 -6 9 1 12 27
12 20 0 36 -4 36 -10z m730 -10 c0 -22 -32 -71 -43 -67 -22 7 -19 44 5 61 26
19 38 20 38 6z m430 -41 c0 -27 -30 -56 -44 -42 -10 10 -7 52 6 73 16 25 38 8
38 -31z m-1468 19 c53 -16 102 -71 93 -107 -9 -36 -25 -52 -48 -49 -28 4 -34
28 -8 35 41 11 17 66 -35 79 -67 17 -147 -17 -172 -72 -7 -16 -18 -40 -25 -54
-28 -56 -78 -19 -58 43 18 52 52 86 116 112 69 28 83 29 137 13z m182 0 c22
-7 47 -18 54 -25 19 -18 45 -16 89 7 53 27 94 34 116 18 17 -12 17 -16 2 -50
-24 -60 -20 -93 17 -122 33 -25 33 -25 15 -55 -12 -20 -17 -50 -17 -98 0 -45
-5 -76 -15 -90 -14 -20 -14 -25 1 -56 10 -21 14 -43 10 -54 -7 -16 -10 -15
-35 13 -27 30 -28 30 -52 13 -13 -10 -33 -19 -44 -21 -29 -4 -33 39 -6 59 22
15 28 33 10 33 -6 0 -17 -7 -25 -15 -20 -19 -39 -19 -58 1 -29 28 -40 9 -12
-20 29 -33 31 -39 14 -54 -14 -12 -70 7 -83 28 -5 8 -14 1 -26 -19 -34 -56
-65 -25 -33 34 14 27 15 36 6 48 -7 8 -15 46 -18 83 -3 38 -13 86 -22 107
l-16 39 32 25 c37 28 43 73 16 125 -15 30 -15 32 2 45 22 16 26 16 78 1z m509
-12 c66 -29 111 -83 111 -133 0 -33 -18 -56 -39 -50 -10 4 -23 26 -47 82 -20
46 -72 75 -134 75 -41 0 -59 -5 -74 -20 -26 -26 -25 -46 1 -60 16 -9 18 -14 8
-26 -17 -20 -35 -17 -53 8 -22 32 -20 52 11 89 53 62 127 75 216 35z m-1136
-8 c4 -7 10 -38 14 -68 l5 -55 17 38 c20 44 63 70 78 46 14 -22 1 -61 -35 -99
-20 -21 -36 -50 -40 -72 -8 -43 -36 -54 -36 -14 0 14 -5 28 -11 31 -6 4 -24
25 -40 47 -34 47 -39 110 -12 140 19 21 48 24 60 6z m2007 -12 c-7 -17 -48
-40 -65 -34 -9 3 -6 11 9 26 25 25 65 30 56 8z m-2475 -56 c9 -28 1 -80 -13
-80 -14 0 -36 62 -30 85 8 34 30 31 43 -5z m2382 3 c-8 -15 -10 -15 -11 -2 0
17 10 32 18 25 2 -3 -1 -13 -7 -23z m-2437 -44 c26 -31 27 -49 0 -49 -21 0
-54 37 -54 60 0 29 25 24 54 -11z m1931 11 c14 -16 15 -20 4 -20 -16 0 -39 19
-39 32 0 14 16 9 35 -12z m-1594 -31 c24 -12 45 -67 31 -81 -25 -25 -112 45
-112 90 0 12 51 6 81 -9z m635 -6 c34 -50 56 -117 66 -193 10 -87 10 -91 2
-148 -5 -33 -2 -47 12 -63 23 -25 13 -33 -61 -49 -33 -7 -65 -15 -72 -17 -8
-3 -10 5 -7 29 4 23 -2 47 -20 82 l-25 49 24 19 c13 10 27 29 31 41 3 12 18
32 32 43 39 32 37 88 -6 147 -17 25 -32 55 -32 66 0 31 34 27 56 -6z m584 11
c0 -9 -14 -41 -31 -70 -37 -65 -37 -115 -1 -124 21 -4 40 -38 54 -90 1 -3 -7
-23 -17 -45 -10 -22 -18 -61 -19 -88 -1 -45 -2 -47 -26 -43 -14 3 -42 8 -62
12 -42 7 -47 18 -21 46 14 16 15 25 6 61 -22 87 11 269 59 321 10 11 18 23 18
28 0 4 9 8 20 8 12 0 20 -7 20 -16z m498 -22 c2 -7 -6 -12 -20 -11 -19 1 -20
2 -4 6 15 4 16 7 5 15 -12 8 -12 9 0 6 8 -3 17 -10 19 -16z m122 1 c0 -5 -14
-21 -32 -36 -18 -16 -25 -26 -16 -23 19 6 15 -18 -9 -45 -13 -15 -17 -15 -58
0 -25 9 -45 20 -45 24 0 17 59 64 92 74 41 13 68 15 68 6z m-320 -19 c0 -13
-21 -44 -30 -44 -14 0 -12 24 2 38 13 13 28 16 28 6z m-1200 -52 c0 -44 -14
-58 -44 -44 -33 15 -33 35 1 60 33 24 43 20 43 -16z m1815 18 c0 -23 -59 -20
-63 3 -3 15 2 18 30 15 21 -2 33 -8 33 -18z m-655 -40 c0 -25 -27 -37 -43 -21
-9 10 -8 16 7 27 27 19 36 18 36 -6z m-1530 -71 c0 -10 -7 -19 -15 -19 -20 0
-40 43 -31 67 7 17 9 16 27 -6 10 -13 19 -32 19 -42z m174 45 c13 -5 12 -10
-6 -35 -24 -31 -38 -30 -38 5 0 34 12 42 44 30z m-454 -19 c0 -20 -45 -65 -65
-65 -19 0 -19 4 0 40 20 39 65 56 65 25z m90 -55 c0 -29 -29 -70 -50 -70 -20
0 -10 51 15 75 31 32 35 31 35 -5z m312 3 c33 -30 23 -48 -28 -48 -39 0 -49 4
-57 23 -8 18 -7 26 4 33 22 14 61 11 81 -8z m1802 -47 c19 -25 19 -29 5 -54
-21 -38 -47 -41 -51 -5 -5 44 3 94 15 90 6 -2 20 -16 31 -31z m121 -16 c6 -29
-8 -70 -25 -70 -13 0 -23 65 -16 96 6 21 10 23 21 14 7 -6 17 -24 20 -40z
m-1508 -12 c34 -32 75 -121 71 -155 -4 -26 -5 -26 -18 15 -7 23 -20 48 -28 55
-13 10 -13 8 0 -18 19 -39 30 -95 18 -95 -5 0 -14 17 -19 38 -6 21 -17 46 -26
57 -10 14 -9 2 6 -43 12 -35 20 -65 18 -67 -2 -2 -16 -6 -32 -10 -23 -6 -27
-4 -27 13 0 24 -29 96 -36 89 -3 -3 -1 -14 4 -24 16 -31 23 -91 12 -98 -5 -3
-12 0 -14 7 -2 7 -9 32 -15 56 -7 23 -16 42 -21 42 -5 0 -2 -16 6 -35 16 -40
19 -85 4 -85 -5 0 -10 9 -10 20 0 24 -28 95 -35 89 -2 -3 2 -27 11 -54 14 -50
13 -75 -5 -75 -5 0 -12 10 -14 23 -4 19 -4 19 -6 -5 -2 -44 -18 -41 -25 6 -4
24 -13 52 -21 62 -12 16 -12 11 0 -36 17 -64 18 -80 6 -80 -5 0 -12 21 -16 47
-9 61 -26 93 -69 131 -20 17 -36 34 -36 37 0 10 86 59 160 92 83 37 118 37
157 1z m1573 4 c0 -21 -27 -62 -42 -62 -12 0 -2 48 14 67 15 18 28 16 28 -5z
m-1975 -27 c0 -32 -18 -41 -61 -31 -50 13 -18 69 36 63 21 -2 25 -7 25 -32z
m-175 12 c0 -30 -63 -64 -88 -48 -22 13 24 61 59 61 18 0 29 -5 29 -13z m220
-65 c-17 -6 -42 7 -35 18 4 6 13 5 26 -3 10 -6 15 -13 9 -15z m-155 8 c3 -5
-7 -17 -22 -26 -15 -9 -40 -25 -55 -35 -32 -22 -38 -23 -38 -6 0 14 77 75 97
76 6 1 14 -3 18 -9z m-196 -34 c17 -18 6 -36 -23 -36 -26 0 -69 37 -60 52 8
13 64 2 83 -16z m369 -5 c76 -39 102 -86 102 -187 0 -77 -15 -118 -66 -174
-47 -52 -82 -70 -134 -70 -51 0 -50 20 2 35 79 22 122 94 116 195 -4 72 -26
111 -80 144 -36 22 -110 21 -139 -3 -20 -16 -21 -21 -10 -48 6 -16 26 -37 44
-47 l32 -17 -32 29 c-35 30 -41 50 -21 70 29 29 121 2 158 -46 28 -35 25 -45
-24 -80 l-44 -32 -11 30 c-13 38 -19 38 -13 1 9 -61 -69 -63 -130 -4 -23 22
-28 35 -28 75 0 43 5 54 38 89 65 69 153 84 240 40z m648 -37 c-3 -8 -12 -14
-21 -14 -21 0 -19 39 3 63 17 19 17 19 20 -8 2 -15 1 -33 -2 -41z m244 37 c15
-29 12 -41 -9 -41 -12 0 -20 9 -23 25 -8 39 14 49 32 16z m-55 -21 c0 -12 -17
-16 -82 -18 -77 -3 -83 -1 -83 17 0 16 8 20 43 23 68 5 122 -5 122 -22z
m-1137 -36 c4 -36 -30 -84 -59 -84 -30 0 -26 64 6 96 31 31 49 27 53 -12z
m1912 8 c29 -24 21 -38 -36 -62 -36 -16 -44 -24 -44 -45 0 -15 -4 -24 -10 -20
-31 19 0 -9 70 -64 102 -81 230 -215 298 -313 28 -42 52 -79 52 -82 0 -3 -8
-6 -18 -6 -22 0 -62 40 -140 140 -32 42 -101 114 -152 160 -142 128 -150 137
-150 160 0 14 4 19 13 14 6 -4 1 4 -11 18 -18 20 -21 30 -14 45 15 28 47 53
78 63 41 12 39 12 64 -8z m-655 -27 c160 -26 375 -112 431 -172 35 -38 29 -47
-14 -19 -111 70 -249 123 -407 158 -36 7 -120 12 -210 12 -128 -1 -165 -5
-248 -27 -122 -33 -252 -87 -340 -144 -62 -39 -68 -41 -62 -21 9 31 24 42 135
98 225 113 478 154 715 115z m-5 -56 c218 -32 433 -145 623 -329 92 -89 207
-226 207 -248 0 -5 18 -32 40 -58 24 -30 40 -59 40 -75 0 -15 7 -32 16 -40 37
-31 130 -257 164 -403 51 -214 66 -548 35 -746 -68 -419 -231 -752 -491 -1000
-175 -167 -386 -281 -600 -324 -126 -25 -329 -24 -444 4 -237 56 -423 162
-600 340 -186 187 -307 386 -394 650 -54 162 -72 250 -92 435 -44 405 72 883
293 1210 129 191 338 387 500 469 233 117 444 152 703 115z m-975 -110 c-10
-18 -36 -53 -60 -78 -65 -71 -172 -207 -236 -302 -75 -112 -134 -162 -153
-130 -15 23 244 373 345 467 39 36 111 85 117 80 2 -2 -4 -19 -13 -37z m-885
-42 c0 -27 -19 -42 -37 -31 -29 18 -35 37 -23 69 l12 30 24 -28 c13 -15 24
-33 24 -40z m683 -35 c9 -8 17 -19 17 -24 0 -17 -30 -20 -46 -3 -26 25 -30 8
-5 -19 36 -39 6 -41 -34 -3 -33 32 -47 81 -28 100 6 7 63 -24 96 -51z m216 30
c-11 -32 -62 -92 -79 -92 -7 0 -7 6 2 18 16 22 82 102 85 102 1 0 -2 -13 -8
-28z m1769 -15 c17 -16 25 -18 34 -9 20 20 46 13 70 -18 14 -20 31 -30 47 -30
59 -1 122 -45 172 -119 14 -23 15 -21 12 40 -5 85 4 98 50 70 37 -23 67 -61
67 -86 0 -9 9 -15 23 -15 19 0 17 -3 -11 -17 -49 -24 -90 -77 -108 -141 -20
-70 -63 -113 -134 -137 -59 -20 -105 -14 -144 16 -30 24 -35 72 -10 107 l15
22 30 -21 c67 -48 149 -13 149 62 0 82 -38 121 -119 123 -45 1 -52 5 -139 87
-51 47 -89 89 -85 93 11 11 56 -3 81 -27z m-36 -150 c85 -98 112 -137 102
-147 -9 -9 -52 40 -259 289 -50 61 96 -72 157 -142z m-2542 127 c21 -54 8
-134 -22 -134 -11 0 -38 56 -38 80 0 26 27 80 41 80 5 0 14 -12 19 -26z m522
-61 c25 -25 27 -31 15 -47 -18 -25 -50 -14 -76 27 -11 18 -21 27 -21 21 0 -5
14 -29 31 -52 17 -24 29 -45 26 -48 -3 -3 -24 7 -46 22 -42 28 -61 67 -53 111
4 21 6 21 50 8 25 -8 59 -27 74 -42z m2588 37 c0 -5 -12 -10 -27 -10 -22 0
-25 2 -13 10 20 13 40 13 40 0z m0 -30 c0 -5 -6 -10 -12 -10 -7 0 -23 -3 -35
-6 -13 -4 -23 -2 -23 4 0 9 20 17 58 21 6 0 12 -3 12 -9z m0 -40 c0 -5 -18
-10 -41 -10 -24 0 -38 4 -34 10 3 6 22 10 41 10 19 0 34 -4 34 -10z m-30 -30
c0 -5 -9 -10 -20 -10 -11 0 -20 5 -20 10 0 6 9 10 20 10 11 0 20 -4 20 -10z
m-2410 -9 c0 -5 -7 -14 -16 -22 -9 -7 -43 -48 -76 -91 -98 -127 -89 -95 12 41
54 73 80 97 80 72z m21 -57 c-28 -30 -79 -94 -113 -142 -53 -72 -64 -82 -66
-63 -7 45 165 261 206 261 22 0 20 -5 -27 -56z m2075 31 c18 -13 16 -14 -23
-15 -46 0 -67 16 -31 23 13 2 26 5 29 6 3 0 14 -6 25 -14z m9 -37 c28 -12 35
-34 8 -23 -10 4 -28 10 -41 12 -12 3 -25 9 -28 14 -8 13 31 11 61 -3z m-2370
-32 c21 -15 23 -14 -62 -46 -30 -12 -40 -63 -18 -96 18 -28 14 -54 -8 -54 -18
0 -53 39 -60 68 -20 85 84 175 148 128z m2396 -22 c9 -11 9 -14 0 -14 -18 0
-51 19 -51 29 0 13 37 2 51 -15z m-2749 -35 c36 -35 27 -49 -30 -49 -26 0 -36
6 -52 33 -27 43 -26 47 16 47 26 0 43 -8 66 -31z m342 2 c7 -11 -36 -75 -49
-73 -21 3 -16 50 7 66 26 18 35 20 42 7z m2406 -1 c0 -5 -4 -10 -10 -10 -5 0
-10 5 -10 10 0 6 5 10 10 10 6 0 10 -4 10 -10z m-2746 -135 c17 -18 30 -54 22
-62 -3 -4 -17 -1 -31 5 -19 9 -25 19 -25 42 0 33 11 38 34 15z m233 -99 c40
-20 109 -21 147 -1 16 9 31 14 33 11 2 -2 -4 -20 -13 -39 -15 -32 -21 -35 -46
-30 -17 3 -28 1 -28 -6 0 -6 9 -11 21 -11 11 0 17 -5 14 -10 -3 -6 -17 -7 -31
-4 -14 4 -24 2 -24 -5 0 -6 12 -11 26 -11 16 0 23 -4 18 -11 -4 -6 -19 -9 -36
-5 -18 3 -27 2 -23 -4 3 -6 18 -10 33 -10 21 0 24 -2 12 -10 -8 -5 -30 -7 -49
-3 -24 4 -32 2 -27 -6 4 -6 21 -11 39 -11 44 0 22 -18 -28 -23 l-40 -4 43 -1
c57 -3 54 -22 -5 -22 -54 0 -54 -8 0 -12 61 -4 42 -18 -25 -18 -74 0 -62 -19
12 -21 41 -1 42 -1 17 -9 -16 -5 -34 -7 -40 -5 -7 2 -28 6 -47 8 l-35 6 30
-14 c17 -8 47 -14 68 -15 26 0 37 -4 35 -12 -12 -36 -126 -12 -175 37 -42 42
-44 85 -8 119 31 29 32 68 4 104 -22 28 -20 56 8 98 l15 24 37 -29 c20 -15 50
-36 68 -45z m2508 -92 c17 -17 16 -35 -1 -41 -9 -3 -34 37 -34 52 0 11 20 4
35 -11z m102 -260 c13 -43 33 -141 45 -216 l22 -136 47 -22 c58 -26 69 -39 76
-89 9 -64 -19 -99 -98 -124 -13 -4 -17 -27 -22 -109 -13 -194 -38 -311 -119
-552 -85 -254 -247 -492 -487 -715 -62 -57 -118 -116 -126 -132 -8 -15 -15
-49 -15 -75 0 -41 5 -51 37 -81 33 -32 41 -35 81 -30 53 6 71 26 42 46 -27 18
-25 56 2 75 32 23 54 20 77 -10 88 -112 -131 -243 -243 -145 -57 50 -80 179
-43 248 9 17 59 63 110 101 195 147 374 365 473 577 201 431 237 932 101 1402
-23 79 -23 81 -4 74 15 -6 27 -30 44 -87z m452 -27 c1 -10 -10 -22 -25 -28
-15 -5 -24 -12 -21 -16 4 -3 18 2 33 11 35 24 42 13 11 -18 -28 -28 -15 -36
15 -9 16 14 18 14 18 0 0 -8 -12 -25 -27 -36 -27 -20 -27 -20 -5 -21 12 0 22
5 22 11 0 5 5 7 10 4 17 -11 11 -24 -15 -31 -14 -3 -25 -10 -25 -15 0 -12 7
-11 32 2 17 9 19 8 16 -7 -2 -10 -14 -22 -28 -26 -22 -6 -21 -7 8 -4 22 2 32
-2 32 -11 0 -7 -15 -17 -32 -20 l-33 -7 35 -7 35 -6 -35 -17 c-35 -17 -35 -17
-5 -11 l30 5 -24 -20 c-23 -20 -23 -20 -2 -20 12 0 19 -4 16 -10 -3 -5 -17
-10 -29 -10 -22 0 -24 4 -31 102 -5 73 -14 121 -32 166 -14 34 -24 64 -22 65
57 32 64 33 71 18 4 -9 7 -24 7 -34z m-3032 6 c-3 -16 -15 -71 -26 -123 -52
-248 -54 -573 -5 -824 21 -106 83 -283 146 -417 28 -60 48 -112 45 -115 -4 -4
-20 -1 -37 6 -78 32 -210 -66 -210 -156 0 -41 38 -111 75 -140 61 -47 153 -55
142 -13 -6 24 10 34 28 19 18 -15 19 -52 3 -68 -17 -17 -102 -15 -146 4 -104
43 -160 168 -118 267 16 40 77 94 133 119 24 10 43 25 43 32 0 8 -24 65 -54
128 -78 166 -102 245 -116 384 -9 93 -9 130 0 164 11 42 11 45 -14 65 -14 11
-26 28 -26 37 0 8 -25 37 -55 63 -54 45 -55 48 -55 98 0 63 16 98 53 115 16 8
32 24 37 37 5 13 17 29 28 36 11 9 21 32 25 59 4 25 21 91 39 148 26 84 35
102 51 102 16 0 18 -5 14 -27z m2902 -322 c38 -38 50 -120 30 -211 -12 -58
-36 -77 -65 -55 -12 10 -15 17 -9 22 19 14 36 92 29 131 -10 50 -31 99 -46
104 -17 6 0 28 23 28 10 0 28 -9 38 -19z m319 -3 c20 -20 14 -28 -14 -18 -14
6 -30 8 -35 4 -10 -6 -12 9 -2 19 10 11 38 8 51 -5z m-3548 -14 c0 -8 -5 -24
-11 -35 -12 -23 -14 -122 -3 -140 5 -8 10 -7 16 5 5 9 19 17 31 17 16 1 14 3
-8 8 -17 3 -30 13 -30 21 0 8 13 18 30 21 17 4 23 7 15 8 -12 1 -13 3 -1 10 9
6 10 11 2 15 -18 12 -12 24 9 19 17 -4 20 -14 20 -58 0 -50 -1 -53 -30 -58
-16 -4 -30 -12 -30 -19 0 -9 3 -9 12 0 7 7 19 12 27 12 10 0 7 -6 -9 -17 -14
-10 -28 -17 -32 -15 -5 1 -8 -5 -8 -14 0 -11 5 -14 16 -10 20 8 14 -14 -9 -28
-41 -26 -91 53 -90 143 1 78 24 131 57 131 17 0 26 -6 26 -16z m3544 -23 c3
-5 -10 -9 -28 -8 -19 0 -33 5 -30 9 7 11 51 10 58 -1z m-355 -86 c0 -33 -4
-69 -8 -80 -8 -19 -8 -19 -15 3 -4 13 -15 22 -27 22 -15 0 -19 7 -19 33 0 17
-3 42 -6 55 -5 19 -2 22 20 22 15 0 29 7 33 16 11 29 23 -8 22 -71z m361 57
c0 -4 -18 -7 -39 -7 -22 0 -37 3 -35 7 3 5 21 8 40 8 19 0 34 -3 34 -8z m48
-34 c23 -19 8 -78 -19 -78 -16 0 -39 33 -39 55 0 19 -6 24 -32 28 -19 2 -9 4
22 4 30 0 61 -4 68 -9z m-72 -28 c0 -16 -7 -20 -31 -19 -29 1 -29 1 -5 9 25 8
25 8 2 9 -29 1 -19 21 11 21 16 0 23 -6 23 -20z m8 -41 c-7 -11 -64 -12 -64
-1 0 4 16 8 35 9 19 1 32 -3 29 -8z m6 -24 c-14 -17 -70 -20 -70 -4 0 6 6 9
13 6 6 -2 21 -1 32 4 31 12 39 10 25 -6z m15 -25 c-19 -21 -65 -28 -65 -10 0
6 8 10 18 10 10 0 27 6 38 14 26 19 31 11 9 -14z m1 -32 c-15 -8 -16 -12 -5
-19 11 -7 9 -9 -6 -9 -12 0 -26 5 -33 12 -9 9 -5 14 21 23 37 13 51 9 23 -7z
m-3501 -558 c-4 -11 -15 -25 -25 -30 -15 -8 -21 -6 -30 9 -16 31 -12 59 12 75
21 15 23 15 36 -9 7 -14 10 -35 7 -45z m189 34 c9 -8 16 -20 16 -25 0 -9 17
-50 106 -256 13 -30 13 -33 -8 -44 -28 -15 -39 0 -70 90 -12 36 -24 59 -26 49
-2 -9 8 -48 21 -88 l24 -72 -25 -16 c-14 -9 -38 -34 -53 -55 l-29 -39 -11 28
c-24 63 -23 90 6 128 22 29 26 43 22 72 -8 45 -23 64 -53 64 -13 0 -28 9 -34
20 -7 12 -16 17 -27 13 -13 -5 -15 -2 -9 23 8 32 33 60 86 98 43 30 45 30 64
10z m3166 -21 c0 -30 -37 -81 -82 -113 -51 -37 -79 -34 -121 12 -35 38 -23 51
45 45 43 -4 50 -1 84 35 40 40 74 50 74 21z m-3600 -53 c23 -23 28 -80 6 -80
-20 0 -36 24 -43 64 -6 41 6 47 37 16z m3400 -83 c14 -43 13 -62 -9 -88 -19
-23 -19 -24 5 -52 41 -48 10 -117 -53 -117 -21 0 -33 -5 -33 -14 0 -7 -7 -19
-15 -26 -21 -18 -47 5 -43 39 2 19 10 27 28 29 14 2 35 13 48 25 19 17 23 32
23 81 0 34 1 77 2 96 1 19 -2 45 -6 58 -8 21 -7 22 17 11 14 -7 30 -25 36 -42z
m245 43 c19 -30 -133 -106 -159 -79 -8 7 -5 13 8 21 10 5 32 23 50 39 31 29
88 40 101 19z m-545 -61 c0 -15 -38 -34 -48 -24 -2 2 2 20 8 41 12 35 14 36
26 19 8 -10 14 -26 14 -36z m-2926 10 c14 -11 26 -29 26 -39 0 -17 -4 -18 -27
-9 -14 5 -32 8 -39 5 -12 -5 -44 29 -44 45 0 7 22 15 46 18 6 0 23 -8 38 -20z
m136 -5 c0 -8 -7 -22 -15 -30 -16 -16 -20 -32 -30 -106 -4 -34 -11 -48 -22
-48 -13 0 -15 8 -10 41 3 23 1 53 -5 68 -8 23 -6 29 28 59 42 36 54 40 54 16z
m-279 -14 c25 -14 24 -27 -1 -35 -29 -9 -80 4 -80 20 0 24 47 32 81 15z m355
-25 c16 -24 15 -27 -15 -74 l-32 -49 21 -88 c22 -91 21 -134 -5 -185 -15 -27
-45 -47 -45 -28 0 5 6 22 14 37 17 34 20 111 5 149 -6 15 -20 38 -31 50 -17
19 -20 31 -16 89 4 60 7 70 36 95 39 35 47 36 68 4z m3185 -32 c15 -17 3 -31
-30 -35 -19 -2 -26 3 -32 24 -10 39 33 47 62 11z m-3387 -4 c27 -22 35 -48 14
-50 -48 -4 -88 20 -88 53 0 25 40 24 74 -3z m-97 -30 c27 -10 27 -11 9 -25
-30 -22 -106 -16 -106 7 0 10 35 27 57 28 6 1 24 -4 40 -10z m82 -45 c37 -8
41 -31 6 -40 -30 -7 -80 -62 -100 -110 -11 -27 -12 -40 -3 -60 16 -35 -10 -62
-49 -48 -34 12 -39 28 -15 52 20 20 20 20 1 25 -15 4 -19 0 -19 -18 0 -29 -19
-43 -31 -24 -14 21 -6 64 11 64 17 0 50 55 50 83 0 29 29 62 55 62 13 0 27 5
30 10 7 12 21 12 64 4z m-156 -21 c-11 -33 -25 -43 -59 -43 -38 0 -41 6 -18
38 20 29 87 33 77 5z m273 -79 c43 -45 45 -89 7 -135 -39 -46 -84 -62 -133
-49 -48 13 -70 42 -70 95 0 73 51 124 124 125 32 0 45 -6 72 -36z m341 28 c6
-4 14 -24 18 -46 10 -49 127 -207 223 -298 38 -38 73 -68 77 -68 4 0 -38 47
-93 105 -116 121 -182 214 -182 256 0 54 33 35 101 -57 86 -120 235 -272 347
-356 80 -60 99 -80 119 -124 38 -83 40 -115 10 -177 -43 -87 -102 -127 -187
-127 -64 0 -150 78 -150 136 0 31 19 72 37 78 27 11 35 -5 28 -53 -8 -58 17
-95 75 -112 34 -10 43 -9 81 12 63 36 82 67 82 136 0 67 -27 130 -68 157 -31
20 -42 14 -61 -30 l-14 -34 -58 39 c-118 80 -328 299 -402 419 -17 28 -36 50
-41 46 -11 -6 -6 -15 31 -64 47 -61 54 -79 36 -99 -9 -10 -16 -23 -16 -29 0
-20 -41 -13 -86 13 -44 26 -77 70 -88 118 -18 78 118 199 181 159z m-632 -32
c-9 -16 -17 -30 -19 -30 -3 0 -11 -3 -20 -6 -12 -5 -16 1 -16 24 0 24 5 32 23
35 48 9 48 9 32 -23z m3460 -60 c-9 -36 -24 -50 -52 -50 -23 0 -25 3 -19 31 3
17 6 40 6 50 0 23 41 30 58 10 8 -10 10 -26 7 -41z m-75 36 c0 -28 -20 -66
-34 -66 -22 0 -39 28 -32 55 5 20 13 25 36 25 19 0 30 -5 30 -14z m-130 -35
c0 -11 3 -26 6 -35 4 -11 0 -16 -14 -16 -25 0 -39 35 -22 55 17 21 30 19 30
-4z m58 -21 c10 -17 10 -21 -3 -26 -18 -7 -45 12 -45 32 0 21 34 17 48 -6z
m-3370 -74 c-20 -16 -23 -16 -26 -3 -2 9 2 26 9 38 11 22 12 22 26 3 12 -17
11 -21 -9 -38z m3440 42 c18 -18 14 -38 -7 -38 -23 0 -35 15 -27 35 7 18 18
19 34 3z m100 -21 c3 -12 -3 -17 -21 -17 -31 0 -40 10 -25 27 15 18 42 12 46
-10z m-150 -3 c-5 -29 -35 -41 -54 -22 -22 21 -10 38 27 38 23 0 30 -4 27 -16z
m107 -34 c0 -22 -29 -18 -33 3 -3 14 1 18 15 15 10 -2 18 -10 18 -18z m-55 -6
c0 -10 -7 -14 -22 -12 -32 5 -35 28 -4 28 17 0 26 -5 26 -16z m-3065 -64 c8 0
17 5 20 10 20 32 40 -13 36 -81 -2 -32 4 -59 19 -88 24 -48 43 -49 50 -2 5 31
10 34 38 23 29 -11 21 9 -22 51 -51 52 -92 125 -78 139 6 6 14 -3 22 -22 20
-47 95 -108 157 -126 62 -18 109 -13 145 16 l25 19 49 -52 c89 -94 96 -104 89
-126 -9 -30 -22 -26 -76 24 -26 25 -55 45 -64 45 -23 0 -63 -48 -76 -91 -11
-35 -10 -40 24 -86 19 -26 52 -64 71 -82 20 -19 36 -40 36 -47 0 -17 -73 -74
-107 -83 -15 -4 -47 -6 -70 -3 l-42 4 30 25 c36 30 64 82 52 94 -5 5 -44 9
-86 10 -68 1 -79 4 -88 23 -7 11 -20 30 -30 41 -14 16 -16 28 -10 57 5 20 6
48 3 63 l-5 26 -26 -24 c-14 -13 -40 -29 -58 -36 -17 -7 -38 -20 -47 -29 -19
-22 -32 -117 -17 -126 6 -4 11 -19 10 -34 0 -22 -7 -15 -32 38 -36 73 -39 115
-23 335 8 112 10 121 35 142 l26 21 3 -34 c2 -21 9 -34 17 -34z m-117 -5 c3
-42 -24 -97 -60 -119 -25 -15 -31 -3 -32 68 -1 75 13 98 58 94 28 -3 31 -6 34
-43z m-188 -10 c15 -18 6 -45 -14 -45 -15 0 -36 29 -36 49 0 16 36 13 50 -4z
m408 -60 c7 -14 12 -43 12 -63 l-1 -37 -19 24 c-12 14 -20 38 -20 62 0 45 12
50 28 14z m-458 -54 c0 -16 -9 -39 -19 -52 l-19 -24 -12 30 c-14 37 1 75 30
75 15 0 20 -7 20 -29z m874 -157 l93 -96 -19 -36 c-13 -24 -17 -49 -14 -70 3
-23 1 -32 -7 -29 -16 5 -21 81 -7 107 7 14 7 20 0 20 -15 0 -32 -50 -27 -77 5
-26 -8 -31 -17 -7 -10 27 -7 59 10 82 8 12 11 22 5 22 -15 0 -31 -34 -31 -65
0 -15 -4 -24 -10 -20 -13 8 -13 51 1 76 6 11 8 25 6 32 -3 7 -14 -8 -25 -33
-16 -37 -21 -42 -27 -27 -4 10 -1 35 8 58 21 52 11 50 -13 -3 l-19 -43 0 34
c-1 19 6 43 16 53 9 10 13 21 10 24 -3 4 -16 -11 -29 -32 -27 -46 -39 -24 -13
25 8 17 11 31 7 31 -5 0 -17 -15 -26 -32 -15 -31 -16 -32 -16 -8 0 14 7 36 16
48 8 12 10 22 5 22 -6 0 -11 -4 -11 -8 0 -5 -7 -17 -15 -28 -12 -16 -14 -17
-15 -2 0 19 46 78 62 78 5 0 51 -43 102 -96z m1935 72 c8 -10 8 -16 -3 -25
-11 -9 -17 -6 -30 14 -16 24 -15 25 3 25 10 0 24 -6 30 -14z m95 -37 c17 -20
26 -43 26 -64 0 -44 -17 -54 -30 -18 -5 15 -16 41 -25 56 -31 59 -13 76 29 26z
m-135 2 c9 -15 7 -20 -9 -24 -21 -6 -45 16 -35 33 10 16 33 12 44 -9z m-1747
-43 c60 -40 77 -57 72 -70 -10 -32 13 -19 26 15 30 80 29 78 49 68 43 -24 78
-115 66 -172 -9 -39 -61 -99 -86 -99 -16 0 -13 6 16 31 19 17 35 36 35 43 0 6
-6 4 -13 -5 -18 -25 -79 -59 -102 -58 -16 0 -13 4 10 14 17 7 39 23 50 36 20
22 6 19 -25 -6 -8 -7 -31 -16 -50 -19 -31 -6 -33 -5 -16 6 38 25 91 77 79 78
-7 0 -13 -4 -13 -9 0 -11 -62 -51 -79 -51 -22 0 -10 18 27 40 l37 23 -30 10
c-16 5 -32 13 -35 16 -3 3 -23 19 -45 35 -22 16 -52 40 -67 54 -26 24 -26 26
-10 48 9 13 19 24 22 24 3 0 40 -24 82 -52z m-562 2 c0 -21 -9 -39 -26 -55
-47 -44 -55 -4 -12 58 25 35 38 34 38 -3z m2393 18 c23 -17 36 -68 26 -96 -10
-27 -29 -29 -29 -3 0 10 -11 35 -25 55 -33 49 -16 76 28 44z m-136 -13 c3 -9
2 -19 -1 -23 -8 -8 -38 10 -44 26 -6 18 38 14 45 -3z m-327 -3 c0 -34 -60 -63
-237 -117 -116 -35 -148 -40 -177 -29 -29 11 -16 24 24 24 46 0 254 66 326
103 53 28 64 31 64 19z m-2012 -49 c-5 -23 -19 -50 -29 -59 -18 -16 -19 -16
-19 20 0 27 7 43 27 62 14 13 27 23 29 21 2 -1 -2 -21 -8 -44z m998 13 c44
-19 132 -46 195 -61 63 -16 120 -30 127 -31 22 -6 2 -24 -26 -24 -82 1 -346
92 -370 128 -8 12 -13 22 -10 22 2 0 40 -15 84 -34z m1290 13 c3 -6 1 -16 -5
-22 -9 -9 -14 -8 -21 3 -5 8 -10 18 -10 23 0 11 28 8 36 -4z m159 -31 c15 -28
17 -43 10 -64 -19 -54 -28 -43 -72 89 -5 15 -1 18 18 15 16 -2 31 -16 44 -40z
m-195 3 c0 -19 -22 -23 -38 -7 -15 15 -14 16 11 16 15 0 27 -4 27 -9z m110 -1
c26 -14 45 -86 31 -117 -13 -29 -45 -32 -36 -3 9 29 -13 88 -37 101 -17 9 -18
13 -7 20 18 11 26 11 49 -1z m-797 -96 c23 -17 52 -45 64 -64 40 -62 42 -63
99 -56 30 3 88 17 131 31 42 13 79 22 82 20 8 -9 -30 -92 -52 -113 -34 -32
-93 -53 -152 -53 -64 -1 -75 4 -75 37 0 32 -21 73 -54 103 -38 36 -44 17 -7
-24 30 -34 42 -90 24 -108 -13 -13 -43 27 -43 57 l-1 31 -13 -24 c-12 -22 -21
-25 -80 -27 -71 -2 -83 8 -46 41 27 25 18 30 -19 11 -31 -16 -71 -10 -85 13
-12 18 14 52 52 69 28 12 32 17 19 20 -10 2 -36 -9 -58 -24 -28 -19 -43 -24
-50 -17 -26 26 26 80 99 104 50 16 120 4 165 -27z m-883 -4 c-8 -5 -17 -7 -19
-4 -3 3 1 9 9 14 8 5 17 7 19 4 3 -3 -1 -9 -9 -14z m1214 -37 c-27 -20 -114
-50 -164 -58 -39 -5 -47 -3 -57 14 -12 19 -10 21 15 27 61 13 178 47 192 54
24 14 37 -20 14 -37z m1049 -35 c35 -37 39 -45 34 -81 -3 -22 -12 -46 -20 -54
-12 -12 -18 -10 -46 16 l-32 30 20 20 c12 12 21 30 21 40 0 24 -36 51 -68 51
-13 0 -20 4 -17 10 3 6 20 10 37 10 23 0 41 -10 71 -42z m247 23 c0 -17 -62
-61 -86 -61 -17 0 -27 8 -34 26 -6 14 -10 26 -10 28 0 1 15 0 33 -2 17 -2 43
1 57 7 32 13 40 13 40 2z m-2692 -21 c31 -26 19 -45 -53 -90 -32 -19 -71 -47
-87 -62 -37 -35 -62 -35 -105 -2 -26 20 -63 70 -63 86 0 2 37 3 83 3 83 0 84
0 138 42 30 23 56 42 59 42 3 0 15 -8 28 -19z m1899 -12 c6 -7 16 -30 22 -50
7 -20 23 -53 36 -72 16 -24 20 -38 13 -42 -24 -15 -117 128 -105 159 8 20 21
22 34 5z m-1346 -50 c21 -17 42 -86 37 -123 -3 -27 -7 -30 -38 -30 -30 0 -37
5 -52 35 l-18 35 0 -31 c0 -47 29 -68 87 -61 83 9 139 -35 97 -77 -27 -28 -61
-30 -105 -7 -23 12 -44 20 -47 17 -10 -11 21 -36 59 -48 22 -6 39 -14 39 -18
0 -17 -28 -30 -62 -30 -40 0 -88 34 -88 63 0 7 -11 24 -25 37 -14 13 -26 35
-26 49 l-2 26 -4 -27 c-3 -19 4 -39 20 -60 14 -18 28 -43 31 -55 9 -28 57 -63
86 -63 35 0 23 -49 -19 -77 -43 -29 -46 -29 -61 8 -7 17 -31 59 -53 92 -65
100 -90 163 -84 208 6 46 46 102 91 130 36 22 114 26 137 7z m2126 -5 c9 -22
-31 -53 -68 -53 -24 0 -29 4 -29 25 0 17 7 29 23 35 35 14 67 11 74 -7z
m-2007 -13 c8 -16 8 -18 -4 -14 -17 6 -30 34 -16 34 5 0 14 -9 20 -20z m777
-38 c-32 -35 -11 -94 38 -106 25 -6 30 -20 19 -51 -7 -17 -94 -65 -119 -65
-29 0 -15 20 25 36 22 9 40 20 40 25 0 12 -14 11 -27 -2 -15 -15 -82 -29 -89
-18 -3 5 3 9 13 9 27 0 63 28 63 49 0 10 -9 26 -20 36 -27 24 -26 29 17 81 24
28 41 40 47 34 6 -6 4 -16 -7 -28z m-1656 -73 c21 -7 39 -16 39 -20 0 -5 -13
-23 -28 -40 -21 -24 -38 -32 -75 -36 -93 -11 -121 43 -76 148 l21 49 40 -45
c25 -28 54 -49 79 -56z m1198 53 c50 0 73 -4 88 -17 11 -9 41 -18 66 -20 25
-1 50 -6 57 -10 17 -10 -19 -34 -52 -35 -20 0 -28 -7 -37 -30 -22 -65 -124
-160 -170 -160 -32 0 -116 62 -136 100 -7 14 -16 46 -20 70 -7 45 -6 46 50
100 l58 54 13 -27 c13 -24 19 -26 83 -25z m589 -8 c27 -29 32 -41 32 -84 0
-43 -4 -54 -33 -82 -19 -18 -61 -43 -95 -56 -42 -16 -71 -35 -92 -60 -27 -33
-30 -34 -30 -14 0 36 28 69 84 101 71 41 98 72 94 107 -3 25 -8 29 -36 32 -25
3 -35 10 -43 29 -12 33 -6 51 23 63 33 13 59 3 96 -36z m-2361 -46 c-6 -50
-12 -68 -32 -85 -35 -31 -57 -30 -49 1 3 14 -1 37 -10 54 -9 17 -16 38 -16 46
0 20 47 45 84 46 l29 0 -6 -62z m3001 34 c2 -7 -7 -12 -22 -12 -14 0 -26 -5
-26 -10 0 -6 14 -9 31 -8 44 4 47 -17 7 -42 -29 -18 -30 -20 -10 -20 12 0 22
-6 22 -13 0 -21 -35 -48 -53 -42 -11 5 -18 -3 -26 -28 -12 -35 -46 -75 -56
-65 -3 3 -1 17 5 32 5 15 10 37 10 48 0 18 -4 20 -45 14 -25 -4 -45 -4 -45 0
0 4 9 22 21 40 20 33 51 45 64 24 4 -6 11 -8 16 -5 5 4 1 16 -8 29 -17 23 -18
23 -48 5 -16 -11 -44 -19 -62 -19 -27 0 -30 3 -26 21 3 12 20 30 37 40 26 17
42 19 102 13 50 -4 74 -3 79 5 8 14 27 10 33 -7z m-1518 -36 c43 -1 47 -5 28
-24 -19 -19 -70 -14 -95 10 -33 31 -31 54 2 32 14 -9 43 -17 65 -18z m1024 26
c2 -4 1 -14 -4 -21 -11 -19 -41 -6 -34 14 6 16 29 20 38 7z m1033 -17 c-15
-14 -35 -25 -44 -25 -33 0 28 48 62 49 6 0 -3 -11 -18 -24z m-1389 -21 c26
-41 22 -54 -16 -54 -47 0 -56 12 -41 54 7 20 18 36 24 36 5 -1 20 -17 33 -36z
m-78 11 c0 -35 -73 -75 -137 -75 -37 0 -26 18 18 31 23 7 48 23 56 36 17 26
63 32 63 8z m-2175 -35 c17 -33 18 -40 6 -59 -12 -19 -51 4 -51 30 0 20 17 59
25 59 3 0 11 -13 20 -30z m364 15 c27 -14 60 -70 48 -82 -11 -10 -77 8 -77 21
0 8 -7 19 -15 26 -20 16 -19 50 0 50 9 0 29 -7 44 -15z m3149 -24 c5 -34 -68
-101 -111 -101 -59 0 -78 48 -29 74 15 8 37 25 50 39 30 32 85 25 90 -12z
m-2363 5 c0 -25 -16 -30 -39 -13 -24 17 -12 39 17 35 14 -2 22 -10 22 -22z
m-847 -18 c16 -16 15 -70 0 -90 -7 -9 -34 -18 -60 -21 -44 -4 -46 -3 -51 22
-2 14 -6 32 -8 40 -2 8 12 24 36 37 45 27 66 29 83 12z m1827 -62 c0 -29 7
-52 19 -65 23 -25 16 -45 -22 -65 -36 -18 -76 -9 -135 30 -33 22 -39 23 -32 8
5 -11 10 -36 13 -57 5 -45 -14 -71 -64 -87 -19 -7 -39 -20 -44 -30 -10 -18
-11 -18 -45 3 -104 65 -100 61 -103 102 -3 48 17 81 43 72 12 -5 15 -14 11
-32 -5 -19 -3 -23 9 -19 11 5 15 -1 15 -20 0 -14 5 -26 10 -26 6 0 10 11 10
24 0 14 5 28 10 31 6 3 10 -4 10 -17 0 -13 5 -30 10 -38 11 -17 13 -9 10 33
-2 28 24 40 33 15 2 -7 7 -10 11 -6 4 3 2 16 -4 28 -11 20 -6 27 42 70 l53 47
35 -18 c52 -28 70 -23 31 8 l-35 27 45 12 c65 18 64 18 64 -30z m55 28 c0 -9
14 -29 31 -45 25 -24 28 -31 19 -49 -14 -27 -23 -25 -59 11 -41 40 -43 99 -4
99 7 0 13 -7 13 -16z m-2200 -33 c11 -22 13 -64 3 -74 -13 -14 -43 27 -43 60
0 38 23 46 40 14z m1690 -8 c0 -4 -10 -17 -22 -30 -12 -13 -18 -26 -14 -30 4
-4 16 3 26 17 10 14 22 21 26 17 4 -4 -2 -17 -13 -30 -17 -18 -20 -32 -16 -77
5 -62 -18 -113 -57 -123 -26 -7 -60 24 -60 54 0 18 4 21 30 16 23 -5 32 -2 40
13 16 29 12 50 -9 50 -29 0 -43 23 -32 52 15 39 101 100 101 71z m-1501 -12
c11 -7 10 -11 -7 -20 -41 -22 -74 -5 -34 18 21 13 24 13 41 2z m3322 -1 c11
-6 19 -21 19 -36 0 -20 -4 -25 -21 -22 -27 4 -44 30 -36 52 7 19 12 20 38 6z
m-3209 -47 c48 -43 -14 -124 -72 -93 -27 15 -27 63 2 90 26 24 45 25 70 3z
m3118 -26 c0 -20 -25 1 -28 24 -2 23 -2 23 13 5 8 -11 15 -24 15 -29z m240
-19 c0 -26 -15 -22 -28 7 -18 39 -14 50 8 30 11 -10 20 -26 20 -37z m-1947 -8
c-8 -60 11 -92 83 -141 35 -24 64 -47 64 -51 0 -19 28 -5 34 16 8 33 90 80
106 61 16 -19 -10 -74 -49 -108 -50 -42 -100 -38 -151 13 -44 44 -55 47 -84
25 -11 -8 -25 -15 -32 -15 -21 0 -23 52 -2 92 14 27 19 52 16 88 -1 27 2 52 7
54 6 3 11 5 12 5 0 1 -1 -17 -4 -39z m1627 -29 c-1 -34 -2 -35 -15 -17 -8 11
-15 33 -15 49 0 25 2 28 15 17 8 -7 15 -28 15 -49z m-190 29 c0 -27 -20 -68
-36 -74 -19 -7 -18 18 2 60 18 38 34 45 34 14z m110 -39 c0 -35 -9 -61 -21
-61 -10 0 -12 34 -3 68 9 32 24 27 24 -7z m-1204 2 c3 -10 14 -36 25 -58 25
-52 24 -67 -2 -63 -43 6 -84 138 -44 138 9 0 18 -8 21 -17z m61 -10 c3 -10 18
-28 32 -40 20 -16 23 -24 15 -33 -22 -23 -84 36 -84 80 0 17 30 11 37 -7z
m1508 -43 c3 -6 -5 -10 -19 -10 -27 0 -41 14 -31 30 7 11 39 -2 50 -20z m-221
-45 c-4 -8 -10 -15 -15 -15 -4 0 -6 7 -3 15 4 8 10 15 15 15 4 0 6 -7 3 -15z"/>
<path d="M3014 7079 c-3 -6 -1 -16 5 -22 8 -8 11 -5 11 11 0 24 -5 28 -16 11z"/>
<path d="M3220 7069 c0 -11 5 -17 10 -14 6 3 10 13 10 21 0 8 -4 14 -10 14 -5
0 -10 -9 -10 -21z"/>
<path d="M3050 7055 c0 -8 5 -15 10 -15 6 0 10 7 10 15 0 8 -4 15 -10 15 -5 0
-10 -7 -10 -15z"/>
<path d="M3180 7061 c0 -6 5 -13 10 -16 6 -3 10 1 10 9 0 9 -4 16 -10 16 -5 0
-10 -4 -10 -9z"/>
<path d="M3095 7051 c-3 -5 -1 -12 5 -16 5 -3 10 1 10 9 0 18 -6 21 -15 7z"/>
<path d="M3140 7046 c0 -9 5 -16 10 -16 6 0 10 4 10 9 0 6 -4 13 -10 16 -5 3
-10 -1 -10 -9z"/>
<path d="M2960 7011 c0 -6 5 -13 10 -16 6 -3 10 1 10 9 0 9 -4 16 -10 16 -5 0
-10 -4 -10 -9z"/>
<path d="M3265 7010 c-3 -5 -2 -10 4 -10 5 0 13 5 16 10 3 6 2 10 -4 10 -5 0
-13 -4 -16 -10z"/>
<path d="M2972 6908 c19 -59 33 -83 53 -86 27 -4 53 18 57 47 3 21 -3 26 -44
38 -26 7 -50 18 -53 23 -14 23 -23 8 -13 -22z m53 -42 c8 -7 12 -16 9 -19 -10
-9 -34 4 -34 19 0 18 8 18 25 0z"/>
<path d="M3256 6925 c-11 -8 -34 -18 -53 -21 -26 -5 -33 -11 -33 -29 0 -25 29
-55 53 -55 21 0 47 38 47 70 0 14 5 31 12 38 17 17 -3 14 -26 -3z m-6 -59 c0
-15 -24 -29 -33 -19 -7 6 14 32 26 33 4 0 7 -6 7 -14z"/>
<path d="M2679 6604 c9 -25 17 -38 19 -30 3 13 -24 76 -32 76 -2 0 4 -21 13
-46z"/>
<path d="M2531 6580 c0 -8 4 -22 9 -30 12 -18 12 -2 0 25 -6 13 -9 15 -9 5z"/>
<path d="M2950 6474 c-367 -80 -670 -322 -878 -704 -198 -363 -261 -847 -166
-1280 71 -324 206 -582 423 -813 143 -151 360 -281 556 -333 87 -24 120 -27
255 -28 178 0 272 18 420 81 166 71 275 148 413 292 304 318 473 790 454 1276
-15 394 -129 729 -348 1021 -191 257 -447 428 -724 485 -108 23 -308 24 -405
3z m375 -18 c161 -29 305 -93 450 -200 301 -222 520 -597 603 -1031 13 -70 17
-145 17 -335 -1 -229 -2 -253 -28 -372 -15 -69 -41 -168 -58 -220 -152 -461
-508 -827 -907 -929 -376 -96 -746 16 -1047 316 -224 225 -372 522 -442 889
-14 71 -18 145 -17 341 0 222 2 262 22 355 102 470 356 852 702 1055 114 66
214 102 385 138 48 11 247 6 320 -7z"/>
<path d="M2936 6289 c-167 -41 -320 -131 -461 -273 -104 -104 -184 -219 -261
-375 -65 -132 -97 -228 -129 -386 -58 -287 -49 -539 30 -830 81 -300 255 -568
477 -736 217 -163 457 -227 695 -185 515 90 922 658 950 1326 19 457 -148 916
-436 1193 -144 139 -285 221 -449 263 -122 31 -297 32 -416 3z m427 -23 c173
-51 301 -132 448 -283 175 -179 319 -459 373 -725 41 -200 46 -475 11 -662
-23 -124 -86 -310 -149 -441 -213 -441 -628 -699 -1022 -636 -309 50 -604 285
-777 620 -114 221 -165 424 -174 702 -10 309 33 534 148 774 172 360 449 601
769 670 99 22 264 13 373 -19z"/>
<path d="M2944 6226 c-391 -102 -711 -501 -804 -1006 -94 -506 44 -1033 357
-1361 101 -106 187 -170 298 -224 129 -63 198 -79 335 -78 151 1 241 22 365
82 272 134 470 383 589 741 111 336 111 716 0 1050 -97 290 -307 569 -532 706
-179 109 -404 142 -608 90z m338 -10 c239 -46 446 -195 608 -438 192 -286 282
-652 251 -1018 -20 -229 -60 -380 -151 -565 -91 -185 -194 -318 -329 -427
-279 -224 -607 -258 -907 -92 -240 132 -447 405 -547 720 -58 184 -72 281 -72
514 1 186 3 217 28 334 34 156 55 223 112 343 145 308 390 540 655 619 90 28
239 32 352 10z"/>
<path d="M2995 6061 c-135 -39 -233 -101 -352 -222 -113 -115 -166 -195 -233
-353 -146 -343 -148 -816 -5 -1149 128 -299 314 -489 560 -573 108 -37 257
-39 355 -5 120 42 258 137 341 233 83 98 107 134 163 238 112 213 151 389 151
680 -1 220 -13 305 -72 474 -149 429 -443 698 -762 695 -50 0 -111 -8 -146
-18z m313 -24 c110 -32 179 -76 288 -182 182 -178 302 -420 349 -703 22 -130
16 -444 -10 -562 -116 -523 -488 -882 -860 -831 -353 49 -642 393 -737 876
-26 129 -30 351 -9 480 77 483 344 848 681 930 89 22 206 18 298 -8z"/>
<path d="M3064 6010 c-82 -12 -146 -37 -220 -86 -218 -145 -371 -382 -452
-703 -25 -98 -27 -121 -26 -311 0 -148 5 -225 16 -275 29 -130 38 -155 55
-155 8 0 31 -13 50 -30 42 -38 84 -40 118 -5 14 14 25 36 25 51 0 15 7 35 15
44 14 15 13 26 -5 101 -99 412 77 942 358 1077 17 9 32 22 32 29 0 24 -120
-60 -188 -133 -114 -121 -207 -330 -233 -521 -15 -112 -6 -365 16 -452 14 -58
14 -68 0 -97 -8 -18 -15 -41 -15 -51 0 -24 -30 -53 -54 -53 -23 0 -76 28 -76
41 0 5 -11 14 -24 19 -20 7 -27 22 -40 80 -31 134 -39 231 -33 395 8 226 40
351 137 546 112 225 286 391 472 451 73 23 207 28 278 9 118 -32 262 -134 370
-263 107 -127 207 -356 246 -563 43 -221 2 -655 -60 -655 -8 0 -16 -7 -20 -15
-3 -8 -21 -23 -41 -32 -34 -16 -36 -16 -63 4 -18 13 -28 31 -30 54 -2 19 -8
39 -13 46 -7 7 -4 42 8 100 21 108 23 344 4 453 -29 162 -97 332 -179 442 -75
102 -225 218 -281 218 -12 0 -35 14 -51 32 -16 17 -33 29 -36 25 -4 -4 -2 -7
4 -7 7 0 12 -5 12 -11 0 -5 -6 -7 -12 -3 -7 4 -5 -2 5 -13 22 -25 23 -55 1
-46 -8 3 -13 11 -10 18 7 19 -19 26 -40 10 -15 -11 -16 -16 -6 -36 7 -13 10
-16 8 -6 -3 9 -1 17 4 17 6 0 10 -5 10 -11 0 -5 5 -7 11 -3 6 3 25 -7 42 -22
18 -16 27 -23 21 -16 -14 16 -6 62 11 62 7 0 45 -16 85 -36 296 -148 465 -621
379 -1060 -17 -88 -20 -119 -11 -122 7 -2 12 -9 12 -15 0 -38 23 -85 46 -95
39 -18 60 -14 96 17 18 16 42 30 52 32 23 5 37 52 61 197 27 160 17 427 -20
575 -23 91 -90 254 -142 345 -79 140 -231 294 -353 357 -93 47 -226 70 -326
55z"/>
<path d="M3171 5887 c-14 -79 -14 -77 3 -77 8 0 18 22 26 60 15 71 15 74 -3
78 -11 2 -18 -14 -26 -61z"/>
<path d="M3250 5920 c15 -28 2 -87 -24 -106 -21 -16 -21 -16 4 -9 31 8 60 41
60 67 0 26 -16 54 -35 62 -13 4 -14 2 -5 -14z"/>
<path d="M2963 5884 c28 -28 43 -76 31 -96 -6 -9 -3 -9 9 1 40 32 7 121 -44
121 -21 0 -21 -1 4 -26z"/>
<path d="M2892 5887 c-19 -11 -20 -15 -8 -27 8 -8 23 -36 33 -62 14 -37 22
-45 33 -38 12 8 10 18 -13 65 -15 31 -25 60 -22 66 8 12 5 11 -23 -4z"/>
<path d="M3360 5887 c0 -7 -14 -35 -31 -61 -22 -36 -27 -52 -19 -60 8 -8 14
-7 20 4 27 45 30 46 44 27 14 -18 15 -18 25 2 9 17 9 20 -3 15 -29 -11 -37 6
-17 35 19 27 19 27 0 39 -15 10 -19 10 -19 -1z"/>
<path d="M3425 5849 c11 -13 21 -26 22 -28 2 -2 3 2 3 10 0 8 -10 20 -22 28
l-23 14 20 -24z"/>
<path d="M3045 5810 c-26 -28 -15 -31 12 -3 12 13 19 23 14 23 -4 0 -16 -9
-26 -20z"/>
<path d="M2770 5778 c0 -18 12 -33 28 -34 30 -2 34 -5 28 -20 -6 -15 -4 -15
10 -3 14 11 18 11 28 -3 12 -16 14 -16 29 -1 15 15 12 18 -32 38 -72 34 -91
39 -91 23z"/>
<path d="M3380 5741 c-18 -5 -21 -9 -11 -15 8 -5 19 -2 29 8 9 9 14 16 12 15
-3 -1 -16 -4 -30 -8z"/>
<path d="M2791 5725 c1 -19 18 -51 18 -35 0 8 -4 22 -9 30 -5 8 -9 11 -9 5z"/>
<path d="M3050 5718 c0 -9 5 -20 11 -23 17 -11 18 -2 3 19 -12 17 -14 17 -14
4z"/>
<path d="M3540 5715 c-19 -7 -29 -14 -22 -14 18 -1 15 -14 -12 -54 -20 -30
-22 -38 -11 -47 11 -9 21 2 50 59 19 39 34 71 33 70 -2 0 -19 -7 -38 -14z"/>
<path d="M3114 5648 c2 -40 4 -108 5 -151 1 -66 3 -77 17 -75 10 2 19 -2 21
-7 2 -6 -9 -12 -23 -13 -39 -3 -56 -20 -43 -43 5 -10 17 -19 25 -19 13 0 15
-15 12 -95 -3 -88 2 -110 17 -85 3 6 18 10 33 10 l27 -1 -30 -16 c-16 -8 -38
-22 -48 -31 -20 -18 -35 -9 -19 11 7 8 9 16 6 19 -3 3 -8 43 -12 89 -5 60 -11
84 -22 87 -12 4 -13 2 -2 -9 8 -9 12 -47 12 -114 0 -86 -3 -104 -18 -118 -10
-10 -28 -17 -39 -17 -11 0 -27 -8 -34 -17 -11 -15 -11 -16 1 -5 8 6 21 12 29
12 11 0 9 -6 -7 -22 -11 -13 -26 -36 -32 -53 -11 -28 -13 -29 -21 -10 -8 17
-9 16 -4 -5 2 -14 5 -29 5 -34 0 -4 9 2 20 15 l19 24 1 -26 c0 -15 -6 -31 -12
-36 -7 -6 -76 -11 -153 -12 -76 -2 -143 -5 -147 -7 -4 -3 -8 6 -8 19 0 14 -7
28 -16 31 -9 3 -14 13 -11 20 3 8 0 17 -7 19 -17 7 -17 -24 1 -45 15 -17 2
-35 -17 -23 -5 3 -10 1 -10 -4 0 -6 5 -12 10 -12 6 -1 15 -3 20 -4 6 -1 13 -3
16 -4 3 0 -2 -8 -10 -17 -9 -8 -16 -22 -16 -30 0 -12 24 -79 61 -171 5 -13 16
-23 24 -23 13 0 14 4 5 21 -15 28 -2 39 16 15 16 -23 18 -46 4 -46 -12 0 -13
-33 -1 -45 16 -17 93 -258 88 -276 -3 -10 1 -23 9 -30 18 -15 18 -43 -1 -59
-21 -18 -11 -26 32 -28 63 -3 92 7 108 38 21 40 19 62 -8 102 -31 45 -39 78
-21 85 21 8 17 23 -6 23 -12 0 -28 -13 -40 -32 l-19 -32 -11 30 c-6 16 -25 64
-42 108 -17 43 -31 86 -31 95 0 9 -3 21 -8 27 -4 5 -6 20 -2 32 5 21 11 22
105 22 86 0 99 -2 94 -16 -3 -9 -2 -12 4 -9 6 4 18 -2 28 -12 9 -11 13 -13 9
-7 -5 8 1 19 18 30 22 15 30 15 47 5 11 -7 17 -8 13 -2 -3 6 -2 11 3 11 6 0 9
-11 8 -25 -1 -30 -4 -31 -32 -4 l-22 20 -4 -31 c-4 -26 0 -34 21 -45 l26 -14
-25 -1 c-15 0 -20 -3 -13 -8 17 -11 21 -528 4 -559 -6 -13 -25 -30 -41 -38
-65 -34 -149 -10 -255 73 -33 25 -53 38 -46 28 23 -28 132 -102 170 -115 55
-18 115 -14 146 11 53 42 56 64 49 342 -6 230 -6 253 9 259 10 4 17 5 18 4 1
-1 4 -119 8 -262 9 -297 14 -320 82 -351 31 -13 47 -15 81 -7 l43 9 -57 0
c-41 0 -63 5 -75 17 -21 21 -11 32 15 18 30 -16 99 -13 137 5 18 8 51 31 72
51 35 32 35 33 3 7 -88 -69 -165 -81 -220 -35 l-34 28 -7 144 c-4 79 -8 191
-8 248 -1 88 1 102 14 97 38 -15 48 -16 25 -2 -17 11 -20 15 -9 16 21 0 13 50
-7 50 -23 0 -16 18 9 23 12 2 7 3 -10 1 -29 -2 -33 0 -33 22 l0 24 154 0 c129
0 155 -2 160 -15 3 -9 2 -23 -3 -33 -5 -9 -28 -69 -52 -132 -24 -63 -44 -117
-46 -120 -2 -2 -9 2 -14 10 -8 11 -9 7 -5 -17 3 -18 1 -35 -4 -38 -6 -4 -11 9
-11 29 -3 57 -4 61 -13 68 -11 8 -36 -1 -36 -13 0 -5 7 -9 15 -9 22 0 15 -39
-13 -74 -28 -37 -29 -94 -2 -124 17 -18 32 -22 81 -22 57 0 59 1 49 20 -12 23
-50 27 -50 5 0 -8 -7 -15 -15 -15 -10 0 -15 10 -15 31 0 29 2 31 28 27 39 -6
66 21 52 53 -10 22 -10 22 -6 2 3 -16 -2 -24 -16 -29 -11 -3 -22 -3 -25 0 -4
3 0 6 8 6 11 0 11 2 -1 10 -10 6 -11 10 -2 10 6 0 12 7 12 15 0 42 99 280 107
258 6 -16 33 9 33 30 0 8 8 21 18 28 23 18 76 175 66 197 -14 33 -14 52 0 52
21 0 30 19 16 35 -7 8 -7 15 -1 19 12 8 3 36 -10 36 -5 0 -9 -9 -9 -19 0 -10
-7 -21 -15 -25 -8 -3 -14 -15 -12 -28 l2 -23 -217 -3 -218 -2 0 80 c0 70 -2
80 -17 80 -16 0 -18 -9 -15 -82 3 -61 1 -80 -8 -72 -7 7 -10 40 -8 85 3 67 5
75 28 86 18 9 24 19 22 37 -2 17 3 26 17 31 11 3 36 24 56 46 20 23 39 38 42
35 9 -9 -45 -74 -68 -81 -11 -4 -18 -9 -15 -12 3 -4 2 -11 -2 -18 -4 -6 0 -3
10 7 9 10 20 18 25 18 4 0 14 9 21 20 7 11 21 20 31 20 10 0 25 8 32 18 13 15
12 16 -4 3 -26 -21 -32 -6 -7 21 12 13 24 35 27 50 3 17 10 25 17 21 6 -3 5 0
-2 8 -11 12 -14 12 -22 -1 -7 -11 -10 -2 -10 31 0 59 -15 71 -77 66 l-48 -3
51 -2 c36 -1 54 -7 58 -17 4 -13 -10 -15 -94 -15 -82 0 -100 3 -100 15 0 8 9
16 20 16 11 1 25 3 30 4 6 1 15 3 22 4 6 0 3 10 -8 22 -16 17 -20 42 -24 135
-4 90 -2 113 8 109 16 -6 0 26 -22 44 -13 11 -14 3 -12 -61z m186 -316 c0 -10
-8 -29 -17 -42 -12 -18 -13 -22 -2 -13 23 19 44 1 30 -26 -14 -25 -15 -25 -35
-5 -15 14 -16 14 -16 0 0 -9 -3 -16 -8 -16 -4 0 -12 -10 -17 -22 -7 -16 -20
-24 -41 -26 -36 -4 -44 12 -44 87 0 64 19 81 92 81 49 0 58 -3 58 -18z m-183
-253 c-15 -11 -25 -25 -22 -30 4 -5 0 -6 -8 -3 -15 5 -30 -10 -41 -41 -5 -16
-2 -15 14 5 23 29 26 12 6 -29 -19 -36 -46 -59 -46 -39 0 8 5 19 12 26 9 9 7
12 -10 12 -25 0 -26 3 -11 31 5 11 15 16 21 13 6 -4 8 -3 5 3 -9 14 62 72 88
72 18 0 17 -2 -8 -20z m-17 -122 l0 -53 -45 -3 c-25 -1 -45 1 -45 4 0 4 14 18
31 32 17 15 35 37 40 50 13 36 19 28 19 -30z m540 -28 c0 -6 -4 -7 -10 -4 -5
3 -10 11 -10 16 0 6 5 7 10 4 6 -3 10 -11 10 -16z m-41 -64 l20 -20 -22 -65
-22 -65 -430 0 -431 0 -23 59 c-17 42 -21 64 -14 75 25 40 43 41 480 39 408
-3 423 -4 442 -23z m-57 -181 c-4 -21 -19 -40 -26 -33 -9 9 7 60 18 56 6 -2 9
-13 8 -23z m-492 6 c0 -5 -2 -10 -4 -10 -3 0 -8 5 -11 10 -3 6 -1 10 4 10 6 0
11 -4 11 -10z m106 -60 c49 -17 78 -48 33 -35 -64 17 -99 39 -99 59 0 17 2 18
10 6 5 -8 30 -22 56 -30z m355 9 c11 -5 17 -14 14 -20 -7 -11 -45 7 -45 21 0
13 7 13 31 -1z m-711 -9 c0 -13 -28 -25 -38 -16 -3 4 0 11 8 16 20 13 30 12
30 0z m46 -170 c51 -136 56 -161 35 -168 -8 -3 -11 0 -7 7 4 6 1 11 -6 12 -10
0 -10 2 1 6 7 3 9 8 4 12 -10 6 -93 242 -93 263 0 29 22 -15 66 -132z m90 -74
c-1 -32 -4 -42 -13 -35 -8 7 -9 20 -2 42 5 18 9 33 9 34 0 2 2 3 4 3 2 0 3
-20 2 -44z m43 -45 c15 -26 2 -90 -20 -102 -16 -8 -19 -6 -19 16 0 15 -5 35
-10 46 -8 13 -7 19 0 19 6 0 15 -11 20 -25 5 -14 12 -25 15 -25 2 0 0 12 -5
26 -20 52 -4 89 19 45z m349 -23 c-3 -24 -3 -35 -1 -26 5 19 33 46 33 31 0 -5
-4 -13 -9 -18 -5 -6 -11 -22 -13 -37 -2 -21 -6 -25 -17 -19 -24 15 -23 111 1
111 6 0 8 -17 6 -42z m-398 -68 c0 -35 -3 -37 -30 -10 -27 27 -25 40 5 40 21
0 25 -5 25 -30z m485 -20 c3 -5 1 -10 -4 -10 -6 0 -11 5 -11 10 0 6 2 10 4 10
3 0 8 -4 11 -10z"/>
<path d="M3255 5290 c-25 -55 -15 -58 11 -4 12 24 18 44 14 44 -4 0 -15 -18
-25 -40z"/>
<path d="M2783 4805 c12 -25 24 -40 27 -34 9 14 -21 79 -36 79 -7 0 -4 -16 9
-45z"/>
<path d="M2848 4805 c2 -25 8 -45 13 -45 5 0 9 20 9 45 0 29 -4 45 -13 45 -8
0 -11 -14 -9 -45z"/>
<path d="M2900 4805 c0 -25 5 -45 10 -45 6 0 10 9 10 21 0 15 5 19 15 15 9 -3
15 0 15 9 0 9 -6 12 -15 9 -10 -4 -15 0 -15 15 0 12 -4 21 -10 21 -5 0 -10
-20 -10 -45z"/>
<path d="M3000 4805 c0 -25 3 -45 8 -45 4 0 7 20 7 45 0 25 -3 45 -7 45 -5 0
-8 -20 -8 -45z"/>
<path d="M3055 4805 c0 -34 3 -41 13 -33 6 6 12 21 12 33 0 12 -6 27 -12 33
-10 8 -13 1 -13 -33z"/>
<path d="M3100 4805 c0 -25 5 -45 10 -45 6 0 10 9 10 19 0 11 8 22 18 24 16 4
16 5 0 6 -11 1 -18 9 -18 21 0 11 -4 20 -10 20 -5 0 -10 -20 -10 -45z"/>
<path d="M3200 4805 c0 -25 5 -45 10 -45 6 0 10 20 10 45 0 25 -4 45 -10 45
-5 0 -10 -20 -10 -45z"/>
<path d="M3295 4805 c0 -29 4 -45 13 -45 8 0 12 16 12 45 0 29 -4 45 -12 45
-9 0 -13 -16 -13 -45z"/>
<path d="M3390 4805 c0 -25 5 -45 10 -45 6 0 10 20 10 45 0 25 -4 45 -10 45
-5 0 -10 -20 -10 -45z"/>
<path d="M3476 4804 c21 -25 40 -41 42 -35 5 15 -47 81 -65 81 -9 0 -1 -17 23
-46z"/>
<path d="M3165 4770 c-3 -5 -1 -10 4 -10 6 0 11 5 11 10 0 6 -2 10 -4 10 -3 0
-8 -4 -11 -10z"/>
<path d="M3355 4770 c-3 -5 -1 -10 4 -10 6 0 11 5 11 10 0 6 -2 10 -4 10 -3 0
-8 -4 -11 -10z"/>
<path d="M2684 5694 c-10 -8 -14 -13 -7 -9 19 9 71 -22 87 -53 l15 -27 1 32
c0 22 -8 37 -26 52 -32 25 -44 26 -70 5z"/>
<path d="M3190 5665 c11 -14 7 -19 -12 -16 -5 0 -8 -3 -8 -9 0 -5 5 -10 10
-10 6 0 10 -6 10 -14 0 -8 11 -28 25 -43 15 -17 23 -21 19 -10 -3 9 -3 17 1
17 4 0 14 -8 21 -17 12 -17 13 -17 14 -1 0 17 -33 34 -49 24 -10 -6 -21 16
-21 41 0 13 2 13 17 2 15 -13 15 -12 5 8 -20 36 -13 40 14 8 15 -16 23 -23 19
-15 -16 30 -39 50 -58 50 -16 0 -17 -3 -7 -15z"/>
<path d="M3435 5670 c3 -5 8 -10 11 -10 2 0 4 5 4 10 0 6 -5 10 -11 10 -5 0
-7 -4 -4 -10z"/>
<path d="M2810 5659 c0 -5 5 -7 10 -4 6 3 10 8 10 11 0 2 -4 4 -10 4 -5 0 -10
-5 -10 -11z"/>
<path d="M2630 5644 c-8 -8 -9 -14 -3 -12 6 2 31 -16 56 -39 36 -32 48 -38 57
-28 8 10 -1 23 -36 54 -52 46 -56 47 -74 25z"/>
<path d="M3629 5623 c-1 -17 -8 -41 -28 -97 -12 -33 -21 -61 -21 -62 0 -2 16
6 35 17 36 22 46 33 20 22 -13 -4 -12 3 4 46 20 48 19 81 0 81 -5 0 -9 -3 -10
-7z"/>
<path d="M3584 5584 c-18 -14 -18 -15 4 -4 12 6 22 13 22 15 0 8 -5 6 -26 -11z"/>
<path d="M3180 5581 c0 -6 4 -13 10 -16 6 -3 7 1 4 9 -7 18 -14 21 -14 7z"/>
<path d="M2586 5573 c-13 -13 -4 -22 52 -55 52 -31 60 -33 68 -19 8 13 -1 22
-52 48 -34 17 -65 29 -68 26z"/>
<path d="M3214 5536 c40 -23 54 -43 50 -72 -4 -24 -3 -26 5 -9 6 12 10 15 10
6 1 -8 4 -12 7 -8 3 3 -4 24 -16 45 -15 27 -31 42 -49 45 -23 4 -24 4 -7 -7z"/>
<path d="M3288 5500 c9 -21 20 -36 25 -33 4 3 3 11 -3 18 -7 8 -9 18 -7 23 3
4 -3 13 -13 19 -17 12 -17 10 -2 -27z"/>
<path d="M2550 5500 c0 -6 7 -10 15 -10 8 0 15 2 15 4 0 2 -7 6 -15 10 -8 3
-15 1 -15 -4z"/>
<path d="M3713 5479 c9 -5 17 -14 17 -20 0 -12 -101 -60 -112 -53 -11 7 -10
-3 3 -28 6 -12 14 -16 18 -11 9 14 102 54 111 48 5 -3 1 13 -7 35 -10 24 -23
40 -32 40 -14 -1 -14 -2 2 -11z"/>
<path d="M2581 5450 c-19 -16 -26 -18 -38 -8 -13 10 -15 9 -12 -7 6 -28 46
-31 81 -5 24 18 32 19 45 9 13 -11 15 -10 12 6 -6 28 -57 31 -88 5z"/>
<path d="M3086 5452 c-4 -13 -5 -26 -2 -29 10 -11 18 4 14 29 l-4 23 -8 -23z"/>
<path d="M2657 5405 c-4 -8 -19 -15 -34 -15 -25 -1 -26 -2 -9 -11 14 -9 22 -7
39 10 12 11 18 23 15 26 -3 3 -8 -1 -11 -10z"/>
<path d="M3305 5410 c-3 -6 1 -7 9 -4 13 5 16 -1 16 -30 0 -27 3 -34 15 -30 8
4 15 15 15 26 0 15 6 19 28 18 43 -3 50 2 12 9 -25 5 -38 2 -47 -9 -11 -13
-12 -12 -13 8 0 22 -23 31 -35 12z"/>
<path d="M3452 5408 c-7 -7 -12 -18 -12 -25 0 -7 -6 -13 -12 -13 -7 0 5 -9 26
-21 39 -21 39 -21 59 -1 14 15 18 27 13 46 -8 34 -24 33 -22 -1 1 -22 -4 -28
-19 -28 -15 0 -20 7 -20 28 1 15 0 27 0 27 -1 0 -6 -5 -13 -12z"/>
<path d="M2826 5384 c-23 -23 -19 -27 8 -9 19 12 47 16 120 14 53 -1 100 1
103 5 3 3 -44 6 -105 6 -87 0 -114 -3 -126 -16z"/>
<path d="M3750 5385 c-11 -13 -10 -14 4 -9 9 3 16 10 16 15 0 13 -6 11 -20 -6z"/>
<path d="M2497 5363 c-9 -9 -9 -25 1 -20 14 9 52 -12 52 -28 0 -11 6 -15 18
-11 9 2 27 7 40 11 12 3 22 13 22 21 0 17 3 16 -37 5 -28 -8 -33 -7 -38 10 -6
18 -44 27 -58 12z"/>
<path d="M2830 5340 c-6 -11 -18 -20 -28 -21 -12 0 -11 -3 6 -10 32 -12 27
-54 -6 -53 -14 0 -19 -3 -14 -8 5 -5 22 -8 38 -6 33 4 42 29 23 64 -10 19 -10
26 1 39 8 10 9 15 2 15 -6 0 -16 -9 -22 -20z"/>
<path d="M2895 5354 c70 -8 175 -8 175 -1 0 4 -46 6 -102 5 -57 0 -89 -3 -73
-4z"/>
<path d="M2800 5340 c0 -5 5 -10 11 -10 5 0 7 5 4 10 -3 6 -8 10 -11 10 -2 0
-4 -4 -4 -10z"/>
<path d="M3722 5323 c-30 -13 -58 -20 -64 -16 -8 4 -9 0 -5 -11 4 -10 7 -22 7
-28 0 -7 4 -7 13 -1 6 6 36 18 65 28 47 17 65 37 45 48 -5 2 -32 -6 -61 -20z"/>
<path d="M2480 5323 c0 -6 -2 -18 -5 -25 -4 -11 11 -20 55 -33 33 -10 60 -23
61 -29 0 -11 17 22 18 37 1 4 -9 7 -22 7 -13 0 -27 3 -31 7 -3 4 -17 8 -29 10
-12 2 -28 11 -34 20 -7 9 -13 12 -13 6z"/>
<path d="M3712 5243 c-11 -10 -23 -29 -27 -43 -6 -23 -6 -23 7 -7 15 20 83 39
113 31 18 -5 18 -3 -4 15 -29 26 -62 27 -89 4z"/>
<path d="M2450 5214 c0 -14 3 -14 15 -4 8 7 15 14 15 16 0 2 -7 4 -15 4 -8 0
-15 -7 -15 -16z"/>
<path d="M2570 5201 c0 -6 5 -13 10 -16 6 -3 10 1 10 9 0 9 -4 16 -10 16 -5 0
-10 -4 -10 -9z"/>
<path d="M3819 5190 c-5 -33 -78 -61 -109 -42 -29 18 -25 -5 5 -24 49 -32 122
12 113 68 -4 23 -4 23 -9 -2z"/>
<path d="M2502 5179 c2 -6 8 -10 13 -10 5 0 11 4 13 10 2 6 -4 11 -13 11 -9 0
-15 -5 -13 -11z"/>
<path d="M2440 5158 c0 -22 6 -29 28 -33 15 -4 44 -10 64 -14 30 -7 38 -6 40
8 3 12 -10 19 -56 28 -33 7 -63 18 -68 25 -5 9 -8 4 -8 -14z"/>
<path d="M3200 5085 c-19 -14 -30 -25 -25 -25 6 0 24 11 40 25 39 31 30 31
-15 0z"/>
<path d="M3747 5078 c-15 -11 -51 -107 -43 -115 1 -2 15 11 31 27 24 25 26 30
11 30 -15 0 -16 3 -6 15 17 20 79 30 102 16 25 -15 23 -6 -4 19 -25 23 -66 26
-91 8z"/>
<path d="M2514 5033 c8 -8 -74 -34 -86 -27 -4 3 -8 -6 -8 -19 l0 -24 71 25
c64 23 70 27 53 39 -18 13 -43 18 -30 6z"/>
<path d="M2975 5019 c-4 -6 -5 -12 -2 -15 2 -3 7 2 10 11 7 17 1 20 -8 4z"/>
<path d="M3827 4992 c-16 -8 -45 -14 -64 -15 l-35 -1 23 -19 c26 -21 63 -16
93 13 26 26 16 38 -17 22z"/>
<path d="M2550 4919 c0 -7 -23 -10 -65 -7 -57 3 -65 1 -65 -14 0 -15 10 -18
64 -18 42 0 66 -4 69 -12 3 -7 6 4 6 25 1 20 -1 37 -4 37 -3 0 -5 -5 -5 -11z"/>
<path d="M3732 4898 c-7 -7 -12 -19 -12 -27 0 -12 3 -12 12 -3 16 16 115 16
121 0 3 -7 6 -1 6 15 1 26 0 27 -57 27 -32 0 -63 -5 -70 -12z"/>
<path d="M2510 4829 c-25 -3 -37 -7 -27 -7 15 -2 13 -9 -17 -46 -35 -41 -45
-66 -28 -66 10 0 127 118 121 122 -2 2 -24 1 -49 -3z"/>
<path d="M2420 4814 c0 -8 5 -12 10 -9 6 4 8 11 5 16 -9 14 -15 11 -15 -7z"/>
<path d="M3800 4811 l-55 -7 58 -4 c41 -4 57 -2 57 8 0 6 -1 11 -2 10 -2 -1
-28 -4 -58 -7z"/>
<path d="M3710 4744 c0 -16 9 -19 57 -22 31 -1 63 -8 70 -14 10 -8 13 -5 13
16 0 23 -4 26 -32 26 -18 0 -50 3 -70 6 -33 6 -38 4 -38 -12z"/>
<path d="M2488 4723 c7 -3 16 -2 19 1 4 3 -2 6 -13 5 -11 0 -14 -3 -6 -6z"/>
<path d="M2440 4661 c0 -5 9 -7 20 -4 11 3 20 7 20 9 0 2 -9 4 -20 4 -11 0
-20 -4 -20 -9z"/>
<path d="M2578 4638 c-2 -19 -14 -26 -60 -37 -45 -10 -58 -18 -58 -32 0 -15 4
-17 23 -10 12 5 41 14 65 20 39 11 42 14 42 46 0 39 -7 47 -12 13z"/>
<path d="M3010 4651 c0 -5 15 -20 33 -32 l32 -22 -29 31 c-32 34 -36 37 -36
23z"/>
<path d="M3775 4640 l20 -23 -32 5 c-18 2 -33 0 -33 -5 0 -5 -9 -7 -19 -4 -18
4 -31 -9 -31 -32 0 -5 23 -2 52 5 29 8 60 14 70 14 31 0 27 15 -10 39 l-37 24
20 -23z"/>
<path d="M3296 4626 c27 -20 10 -32 -18 -12 -12 9 -29 16 -38 16 -8 0 3 -9 25
-21 22 -12 56 -35 75 -53 l35 -31 -28 31 c-15 16 -27 37 -27 45 0 17 -19 39
-34 39 -5 0 -1 -6 10 -14z"/>
<path d="M3250 4580 c-12 -8 -10 -10 7 -10 28 0 39 -17 16 -23 -10 -2 -6 -3
10 -2 16 1 34 -6 44 -17 9 -10 23 -18 32 -17 14 0 14 1 1 6 -8 4 -33 21 -55
39 -29 24 -45 30 -55 24z"/>
<path d="M3477 4503 c-15 -42 -25 -78 -23 -80 2 -2 16 30 31 72 15 41 26 77
24 80 -3 2 -17 -30 -32 -72z"/>
<path d="M2529 4524 c-9 -11 -9 -18 -1 -26 14 -14 42 -3 42 16 0 20 -27 27
-41 10z"/>
<path d="M3725 4530 c-4 -7 -3 -16 3 -22 14 -14 45 -2 40 15 -6 16 -34 21 -43
7z"/>
<path d="M3692 4368 c-7 -7 -12 -17 -12 -24 0 -6 -10 -19 -22 -28 -14 -9 -16
-13 -6 -10 24 8 12 -33 -21 -71 -15 -16 -47 -56 -70 -88 -72 -95 -150 -161
-222 -186 -35 -13 -82 -29 -105 -37 -23 -8 -51 -26 -64 -39 -23 -24 -36 -85
-19 -85 5 0 9 4 9 9 0 28 62 76 156 120 120 57 186 114 272 233 43 60 58 75
68 67 10 -8 15 -4 19 18 4 15 13 50 20 78 15 54 15 61 -3 43z"/>
<path d="M2550 4349 c0 -5 4 -8 9 -5 5 3 14 -1 22 -10 7 -8 22 -20 33 -25 12
-6 5 3 -14 20 -37 32 -50 38 -50 20z"/>
<path d="M2572 4280 c11 -43 28 -56 20 -15 -4 21 -1 24 14 19 16 -5 17 -4 4 5
-44 34 -48 33 -38 -9z"/>
<path d="M3608 4293 c-9 -2 -15 -10 -12 -18 8 -19 -12 -51 -63 -106 -24 -26
-40 -50 -35 -53 5 -3 17 3 27 14 10 11 16 20 13 20 -3 0 11 17 31 38 20 21 42
55 48 75 6 20 10 36 10 36 -1 -1 -10 -3 -19 -6z m-78 -147 c0 -2 -8 -10 -17
-17 -16 -13 -17 -12 -4 4 13 16 21 21 21 13z"/>
<path d="M2643 4282 c-17 -11 8 -75 35 -87 12 -5 22 -13 22 -18 0 -4 -6 -5
-12 -1 -7 4 -2 -5 11 -19 14 -15 26 -25 29 -23 2 3 28 -15 58 -40 53 -42 104
-74 121 -74 4 0 -14 13 -42 29 -50 29 -205 179 -205 199 0 6 5 12 11 14 7 2 6
8 -3 15 -7 7 -19 9 -25 5z m78 -129 c13 -16 12 -17 -3 -4 -17 13 -22 21 -14
21 2 0 10 -8 17 -17z"/>
<path d="M2602 4228 c-18 -18 -15 -27 7 -21 12 3 24 -3 35 -18 9 -13 16 -19
16 -14 -1 6 -11 22 -23 38 -18 21 -26 24 -35 15z"/>
<path d="M2690 4130 c12 -16 24 -30 26 -30 3 0 -4 14 -16 30 -12 17 -24 30
-26 30 -3 0 4 -13 16 -30z"/>
<path d="M2775 4035 c65 -62 169 -119 238 -130 23 -4 53 -18 67 -31 15 -14 30
-20 38 -15 24 15 -31 51 -94 61 -75 12 -183 66 -254 125 l-55 47 60 -57z"/>
<path d="M3455 4062 c-17 -15 -41 -35 -55 -44 -14 -9 -20 -17 -13 -17 6 -1 33
19 60 44 26 24 46 44 43 44 -3 0 -19 -12 -35 -27z"/>
<path d="M3054 4052 c-16 -20 -32 -26 -80 -30 -54 -5 -56 -6 -26 -13 46 -9 99
7 118 37 22 33 14 37 -12 6z"/>
<path d="M3140 3975 c0 -12 -5 -15 -16 -11 -14 5 -15 4 -4 -9 14 -17 20 -18
39 -6 12 8 12 12 -2 26 -16 15 -17 15 -17 0z"/>
<path d="M4860 5435 c-17 -10 -20 -14 -9 -15 9 0 22 7 29 15 15 18 12 18 -20
0z"/>
<path d="M1914 3880 c-56 -22 -72 -103 -29 -145 23 -24 73 -36 60 -15 -3 6
-14 10 -24 10 -24 0 -51 31 -51 58 0 35 22 72 47 78 13 4 23 10 23 15 0 5 -1
9 -2 8 -2 0 -13 -4 -24 -9z"/>
<path d="M3140 3200 c0 -5 5 -10 10 -10 6 0 10 5 10 10 0 6 -4 10 -10 10 -5 0
-10 -4 -10 -10z"/>
<path d="M3181 3194 c0 -11 3 -14 6 -6 3 7 2 16 -1 19 -3 4 -6 -2 -5 -13z"/>
<path d="M3220 3175 c0 -8 2 -15 4 -15 2 0 6 7 10 15 3 8 1 15 -4 15 -6 0 -10
-7 -10 -15z"/>
<path d="M3405 3080 c-18 -8 -17 -9 7 -9 15 -1 30 4 33 9 7 12 -12 12 -40 0z"/>
<path d="M3435 3040 l-30 -8 32 -1 c17 0 35 4 38 9 7 11 3 11 -40 0z"/>
<path d="M3014 2948 c-5 -8 -2 -9 9 -5 9 3 19 2 22 -3 10 -16 35 -12 35 5 0
18 -55 21 -66 3z"/>
<path d="M3194 2949 c-12 -20 12 -31 30 -14 9 9 21 13 27 9 8 -4 9 -3 5 4 -9
15 -53 16 -62 1z"/>
<path d="M3120 2858 c0 -11 28 -10 35 1 3 6 -4 9 -15 8 -11 -1 -20 -5 -20 -9z"/>
<path d="M3118 2803 c7 -3 16 -2 19 1 4 3 -2 6 -13 5 -11 0 -14 -3 -6 -6z"/>
<path d="M3310 2791 c0 -8 50 -34 56 -29 1 2 -11 11 -27 20 -16 9 -29 14 -29
9z"/>
<path d="M2037 6933 c12 -2 24 -11 26 -19 3 -9 4 -8 3 3 -1 12 -10 18 -26 19
-21 1 -21 0 -3 -3z"/>
<path d="M3928 6813 c7 -3 16 -2 19 1 4 3 -2 6 -13 5 -11 0 -14 -3 -6 -6z"/>
<path d="M3908 6783 c7 -3 16 -2 19 1 4 3 -2 6 -13 5 -11 0 -14 -3 -6 -6z"/>
<path d="M4397 6707 c-15 -5 -27 -12 -25 -15 2 -4 10 -19 17 -34 11 -22 21
-28 47 -28 18 0 39 3 48 6 14 5 14 8 0 29 -25 39 -55 53 -87 42z m63 -32 l23
-25 -36 0 c-26 0 -39 6 -47 19 -10 19 -6 22 31 30 3 0 16 -10 29 -24z"/>
<path d="M4121 6584 c0 -11 3 -14 6 -6 3 7 2 16 -1 19 -3 4 -6 -2 -5 -13z"/>
<path d="M4670 6130 c-12 -16 -29 -30 -39 -30 -9 0 -25 -6 -35 -13 -15 -11
-12 -12 23 -12 36 0 41 3 60 42 24 50 21 55 -9 13z"/>
<path d="M4909 6147 c11 -15 11 -17 -1 -17 -8 0 -25 -12 -39 -27 -21 -24 -21
-25 -2 -9 12 10 37 21 54 25 l32 6 -29 19 c-24 16 -26 16 -15 3z"/>
<path d="M1458 5995 c2 -14 6 -25 8 -25 2 0 4 11 4 25 0 14 -4 25 -9 25 -4 0
-6 -11 -3 -25z"/>
<path d="M1378 5983 c-26 -29 -51 -87 -41 -97 10 -9 -60 -7 -75 3 -7 4 -20 26
-28 47 l-15 39 5 -40 c7 -50 27 -65 90 -66 l51 -1 -39 -18 c-22 -10 -32 -20
-25 -22 11 -4 11 -10 2 -31 -13 -28 -45 -41 -84 -35 -24 3 -24 3 8 36 17 17
28 32 23 32 -10 0 -60 -58 -60 -71 0 -5 7 -9 15 -9 12 0 13 -4 5 -19 -13 -26
-13 -78 1 -86 13 -9 49 23 49 44 -1 10 -7 5 -16 -11 -20 -38 -34 -35 -34 5 0
35 25 67 52 67 19 0 58 42 58 63 0 10 15 25 35 34 34 16 36 16 57 -4 29 -30
26 -69 -8 -104 -36 -35 -80 -44 -76 -14 5 33 23 62 46 73 16 8 17 11 4 11 -24
1 -68 -56 -68 -90 0 -24 4 -29 25 -29 43 0 82 27 101 70 10 22 24 40 31 40 10
0 9 -8 -4 -34 -14 -30 -14 -41 -3 -80 7 -25 16 -46 20 -46 5 0 20 14 34 31 20
23 26 40 24 72 l-1 42 -4 -40 c-5 -45 -41 -94 -55 -73 -13 21 -9 93 6 113 7
10 19 16 27 13 9 -4 14 2 14 17 0 18 -3 21 -13 12 -18 -14 -32 7 -32 49 0 38
18 58 37 42 11 -8 12 -7 7 6 -8 21 -17 20 -39 -4 -12 -13 -16 -31 -13 -60 4
-43 -2 -49 -23 -23 -8 9 -30 23 -49 31 -32 13 -33 15 -16 26 11 6 33 24 50 39
30 28 30 28 -13 -2 -24 -17 -51 -31 -59 -31 -21 0 -6 49 26 83 14 15 23 27 21
27 -3 0 -17 -12 -31 -27z"/>
<path d="M4660 5945 c-72 -27 -100 -53 -100 -94 0 -60 50 -89 98 -55 13 9 30
13 40 9 9 -4 32 -11 50 -15 30 -7 32 -6 26 13 -3 12 -13 38 -22 57 -12 24 -15
48 -11 73 7 44 6 44 -81 12z m60 -35 c-9 -17 -8 -24 9 -38 10 -9 22 -27 26
-39 5 -19 3 -23 -17 -23 -28 0 -39 7 -61 43 -10 15 -23 27 -30 27 -6 0 -4 -5
6 -11 23 -13 22 -32 -3 -54 -29 -26 -70 -7 -70 33 0 35 19 53 90 85 58 25 72
19 50 -23z"/>
<path d="M1290 5946 c0 -2 8 -10 18 -17 15 -13 16 -12 3 4 -13 16 -21 21 -21
13z"/>
<path d="M4859 5787 c10 -12 22 -16 38 -12 30 7 29 -10 -2 -31 -16 -10 -34
-14 -51 -10 -25 7 -25 6 -10 -16 28 -39 21 -51 -23 -44 -22 3 -46 9 -55 12
-12 5 -16 0 -15 -22 1 -16 3 -22 6 -13 2 9 12 15 21 14 9 -2 37 -6 60 -9 46
-5 47 -3 28 45 -5 12 0 18 23 22 20 4 35 16 45 35 18 35 12 44 -20 30 -18 -8
-28 -8 -41 3 -17 13 -17 13 -4 -4z"/>
<path d="M4783 5534 c-28 -12 -34 -69 -18 -157 14 -76 14 -89 1 -121 -17 -41
-42 -47 -56 -13 -5 13 -9 16 -9 7 -1 -22 19 -40 45 -40 39 0 48 44 33 165 -14
115 -11 130 32 152 21 11 22 13 4 12 -11 0 -25 -3 -32 -5z"/>
<path d="M1470 5251 c0 -5 7 -15 17 -22 15 -13 15 -12 4 9 -12 23 -21 28 -21
13z"/>
<path d="M1284 5051 c0 -21 7 -36 16 -38 10 -3 11 -2 3 4 -6 4 -13 22 -16 38
-4 27 -5 27 -3 -4z"/>
<path d="M1276 4981 c-3 -5 0 -11 8 -14 15 -6 26 1 26 15 0 11 -27 10 -34 -1z"/>
<path d="M1319 4969 c-12 -23 -11 -38 1 -19 8 12 10 12 10 -5 0 -18 2 -18 20
5 25 32 25 36 -1 36 -11 0 -25 -8 -30 -17z"/>
<path d="M1376 4965 c-19 -28 -10 -34 11 -7 13 16 13 15 7 -7 -4 -16 -3 -21 5
-17 13 8 15 56 2 56 -5 0 -16 -11 -25 -25z"/>
<path d="M4910 4876 c0 -2 8 -10 18 -17 15 -13 16 -12 3 4 -13 16 -21 21 -21
13z"/>
<path d="M1413 4843 c-21 -8 -15 -34 18 -71 41 -46 68 -109 76 -172 3 -28 10
-50 16 -50 5 0 7 9 4 21 -3 12 -2 32 3 45 5 13 6 23 2 23 -20 -3 -21 4 -7 39
13 32 13 35 0 18 -19 -25 -33 -12 -17 14 11 18 9 20 -10 20 -22 1 -23 1 -4 15
19 14 19 15 -8 15 -21 0 -27 4 -22 15 3 9 0 15 -9 15 -9 0 -15 10 -15 24 0 27
-8 36 -27 29z"/>
<path d="M4904 4758 c-4 -7 -14 -24 -22 -38 -14 -24 -13 -24 3 -5 20 24 37 55
31 55 -3 0 -8 -6 -12 -12z"/>
<path d="M4674 4687 c-25 -14 -34 -27 -33 -52 0 -16 2 -15 10 6 11 30 45 44
53 23 3 -7 2 -51 -1 -97 -7 -100 5 -145 53 -193 53 -52 114 -44 114 16 0 14
-8 34 -17 45 l-16 20 8 -20 c16 -43 17 -56 5 -70 -16 -19 -34 -20 -27 -1 4 10
0 12 -16 8 -19 -5 -20 -3 -9 10 11 14 10 16 -7 11 -22 -6 -29 12 -8 20 6 3 2
6 -10 6 -27 1 -31 18 -5 24 10 3 6 5 -10 6 -29 1 -38 16 -16 23 8 3 4 9 -10
17 -31 16 -28 35 4 27 17 -5 23 -3 19 4 -3 5 -12 10 -20 10 -10 0 -13 12 -12
40 1 42 6 47 25 28 8 -8 12 -8 12 -1 0 6 -6 16 -14 22 -7 6 -16 24 -19 40 -7
33 -25 43 -53 28z"/>
<path d="M4835 4640 c-15 -30 -24 -64 -24 -87 l2 -38 6 45 c4 25 17 64 29 88
12 23 20 42 17 42 -2 0 -16 -22 -30 -50z"/>
<path d="M4750 4650 c0 -5 5 -10 11 -10 5 0 7 5 4 10 -3 6 -8 10 -11 10 -2 0
-4 -4 -4 -10z"/>
<path d="M4642 4585 c0 -16 2 -22 5 -12 2 9 2 23 0 30 -3 6 -5 -1 -5 -18z"/>
<path d="M4735 4560 c3 -5 11 -10 16 -10 6 0 7 5 4 10 -3 6 -11 10 -16 10 -6
0 -7 -4 -4 -10z"/>
<path d="M4708 4323 c-13 -27 -33 -36 -110 -48 -22 -3 -42 -14 -48 -25 -10
-18 -9 -18 17 -4 34 17 57 18 47 3 -5 -9 1 -10 19 -5 63 15 74 24 85 65 12 48
8 52 -10 14z"/>
<path d="M4578 4073 c7 -3 16 -2 19 1 4 3 -2 6 -13 5 -11 0 -14 -3 -6 -6z"/>
<path d="M4578 4033 c7 -3 16 -2 19 1 4 3 -2 6 -13 5 -11 0 -14 -3 -6 -6z"/>
<path d="M4370 3898 c0 -7 5 -20 10 -28 8 -12 10 -11 10 7 0 12 -4 25 -10 28
-5 3 -10 0 -10 -7z"/>
<path d="M4887 3849 c-17 -10 -16 -13 12 -30 42 -25 91 -96 91 -131 0 -15 5
-28 10 -28 15 0 12 37 -6 73 -9 18 -34 49 -57 69 l-42 37 31 1 c37 0 112 -53
119 -83 2 -12 6 -31 8 -42 3 -11 5 -5 6 14 l1 34 25 -23 c14 -13 25 -19 25
-14 0 14 -114 102 -154 119 -42 18 -45 18 -69 4z"/>
<path d="M4680 3547 c0 -97 -17 -163 -55 -212 -30 -41 -45 -44 -46 -12 -1 12
-5 4 -9 -18 -4 -22 -6 -42 -4 -44 2 -3 24 16 47 41 45 46 76 125 78 199 1 19
4 45 8 59 7 24 7 24 20 -8 8 -18 16 -31 18 -28 7 6 -33 92 -46 100 -8 5 -11
-18 -11 -77z"/>
<path d="M1300 3442 c0 -5 7 -9 15 -9 8 0 12 4 9 9 -3 4 -9 8 -15 8 -5 0 -9
-4 -9 -8z"/>
<path d="M4270 3435 c0 -5 5 -17 10 -25 5 -8 10 -10 10 -5 0 6 -5 17 -10 25
-5 8 -10 11 -10 5z"/>
<path d="M1291 3400 c-1 -17 9 -33 31 -52 l33 -26 -28 -26 c-15 -14 -39 -26
-53 -26 -28 0 -30 7 -7 32 9 10 11 18 5 18 -6 0 -18 -13 -27 -30 -15 -29 -15
-30 9 -36 24 -6 86 21 86 38 0 4 8 8 18 8 10 0 34 -22 55 -50 38 -51 45 -70
25 -70 -6 0 -44 -19 -84 -42 -53 -31 -74 -49 -74 -63 l1 -20 11 20 c15 27 37
43 68 52 14 3 30 12 35 19 12 15 80 31 113 26 31 -5 29 -42 -4 -82 -15 -17
-24 -33 -21 -36 7 -7 44 47 62 90 13 30 13 38 -1 68 -15 32 -14 12 1 -25 7
-16 4 -17 -21 -11 -36 8 -94 62 -94 86 0 10 -5 18 -10 18 -17 0 -33 47 -26 75
6 23 9 25 24 14 15 -11 14 -10 -1 7 -15 16 -19 17 -27 4 -5 -8 -10 -23 -10
-32 0 -10 -4 -18 -10 -18 -14 0 -28 31 -23 54 3 18 2 18 -7 -3 -8 -19 -13 -21
-24 -11 -8 6 -17 21 -19 33 -4 20 -4 20 -6 -3z"/>
<path d="M2868 3173 c7 -3 16 -2 19 1 4 3 -2 6 -13 5 -11 0 -14 -3 -6 -6z"/>
<path d="M1786 2785 c-8 -32 6 -59 43 -81 16 -9 36 -33 46 -52 l17 -36 -41
-39 c-36 -34 -41 -44 -41 -83 0 -42 11 -56 26 -32 4 7 3 8 -4 4 -19 -11 -15
60 4 78 17 17 30 20 37 9 2 -5 3 -3 1 3 -1 6 2 17 6 25 7 11 16 10 47 -8 26
-15 67 -24 131 -30 83 -8 92 -7 92 8 0 10 -13 30 -29 45 l-30 28 31 18 c16 11
29 21 27 23 -7 7 -59 -7 -59 -16 0 -5 -26 -9 -57 -9 -68 0 -179 44 -153 60 22
14 66 12 107 -5 20 -8 38 -14 40 -11 2 2 -10 9 -27 16 -16 7 -30 15 -30 19 0
3 18 23 41 44 45 43 46 56 1 33 -63 -32 -113 -30 -203 8 -12 5 -18 0 -23 -19z
m150 -23 c48 3 51 2 38 -14 -9 -9 -32 -18 -52 -20 -20 -3 -44 -8 -53 -12 -23
-10 -75 35 -66 57 6 15 9 15 43 1 23 -10 58 -14 90 -12z m91 -148 c58 -7 103
-27 103 -46 0 -16 -140 -4 -175 14 -16 9 -38 30 -48 48 l-19 31 40 -20 c22
-11 67 -24 99 -27z"/>
<path d="M1318 2693 c7 -3 16 -2 19 1 4 3 -2 6 -13 5 -11 0 -14 -3 -6 -6z"/>
<path d="M1251 2664 c-12 -15 -21 -33 -21 -42 0 -22 84 -10 121 17 16 12 35
21 42 20 33 -4 48 4 17 10 -27 5 -43 1 -69 -16 -57 -38 -113 -25 -71 17 11 11
16 20 11 20 -5 0 -19 -12 -30 -26z"/>
<path d="M1664 2659 c-13 -15 -26 -19 -46 -15 -21 4 -28 2 -28 -9 0 -8 9 -15
19 -15 18 0 19 -3 9 -30 -11 -33 -4 -80 13 -80 18 0 59 48 59 70 0 15 6 20 25
20 20 0 25 5 25 24 0 14 -4 27 -9 30 -5 4 -7 -3 -4 -14 6 -23 0 -25 -28 -9
-14 7 -18 16 -14 30 8 24 3 24 -21 -2z m14 -63 c3 -26 -21 -66 -40 -66 -4 0
-8 14 -8 31 0 63 41 93 48 35z"/>
<path d="M2050 2670 c8 -5 20 -10 25 -10 6 0 3 5 -5 10 -8 5 -19 10 -25 10 -5
0 -3 -5 5 -10z"/>
<path d="M1863 2503 c-7 -15 -11 -28 -9 -31 6 -6 28 38 24 48 -2 5 -9 -3 -15
-17z"/>
<path d="M3690 2210 c-56 -10 -80 -29 -102 -77 -41 -92 -8 -150 120 -217 102
-52 115 -65 115 -108 0 -68 -91 -101 -160 -58 -32 19 -73 84 -73 115 0 8 -4
15 -10 15 -6 0 -10 -35 -10 -85 0 -47 4 -85 9 -85 5 0 11 5 13 12 4 10 13 10
45 0 64 -19 149 -15 193 9 71 40 95 117 58 189 -20 40 -34 51 -122 97 -55 29
-103 58 -108 65 -14 23 -9 74 10 91 25 23 90 21 128 -2 17 -11 41 -40 54 -65
12 -25 26 -46 31 -46 12 0 12 147 0 155 -6 3 -14 -2 -19 -11 -8 -15 -16 -16
-53 -6 -69 17 -82 18 -119 12z"/>
<path d="M4907 2198 c-122 -315 -171 -425 -200 -450 l-31 -28 79 1 c78 1 79 1
48 15 -37 16 -41 35 -19 89 l15 35 85 0 84 0 17 -50 c18 -54 14 -70 -15 -70
-10 0 -22 -4 -25 -10 -4 -6 36 -10 112 -10 l118 0 -27 23 c-20 16 -54 84 -120
241 -51 121 -98 221 -104 223 -6 2 -14 -2 -17 -9z m13 -227 c16 -41 28 -76 26
-78 -2 -2 -33 -3 -68 -1 l-65 3 31 82 c17 46 34 79 38 75 4 -4 21 -40 38 -81z"/>
<path d="M737 2193 c12 -2 26 -10 31 -16 6 -7 12 -92 14 -189 3 -160 5 -179
24 -204 36 -49 70 -67 134 -72 82 -6 125 4 164 39 46 39 56 91 56 274 l0 144
28 15 c26 15 24 15 -53 15 -76 0 -78 0 -49 -13 17 -8 34 -21 38 -31 3 -9 6
-81 6 -161 0 -162 -12 -209 -59 -237 -42 -25 -104 -22 -136 6 -35 30 -45 78
-45 237 0 147 9 180 50 191 14 4 -31 7 -100 7 -69 -1 -115 -3 -103 -5z"/>
<path d="M1278 2167 l32 -33 -2 -189 c-3 -186 -3 -190 -26 -201 -42 -21 -36
-24 47 -24 52 0 80 4 76 10 -3 6 -14 10 -24 10 -37 0 -42 22 -39 191 l3 164
158 -193 c87 -105 162 -192 168 -192 5 0 9 89 9 223 0 122 4 227 8 234 4 7 19
16 32 22 19 7 5 10 -60 9 -47 0 -75 -3 -64 -5 48 -9 55 -31 52 -166 l-3 -126
-120 149 -120 149 -79 0 -80 1 32 -33z"/>
<path d="M1787 2193 c47 -9 53 -34 53 -231 0 -189 -6 -222 -40 -222 -10 0 -22
-4 -25 -10 -4 -6 39 -10 122 -10 128 1 128 1 93 18 l-35 17 -3 190 c-1 105 0
200 3 212 3 15 17 26 38 32 24 7 -2 9 -98 9 -71 -1 -120 -3 -108 -5z"/>
<path d="M2061 2185 c21 -12 46 -60 125 -245 54 -126 103 -230 109 -230 5 0
28 46 49 103 128 335 137 357 164 372 25 13 22 14 -53 14 -67 -1 -75 -2 -47
-10 24 -7 32 -15 32 -33 0 -21 -90 -269 -102 -281 -8 -9 -120 271 -116 291 2
11 15 21 33 25 17 4 -26 7 -95 7 -114 1 -123 0 -99 -13z"/>
<path d="M2578 2185 l32 -14 -2 -213 c-3 -204 -4 -213 -23 -216 -11 -2 -24 -8
-30 -13 -5 -5 76 -9 202 -9 l210 0 12 57 c18 92 15 100 -21 52 -18 -23 -44
-50 -58 -61 -28 -20 -106 -34 -144 -24 -26 6 -26 7 -26 112 l0 107 33 -7 c36
-7 77 -47 77 -76 0 -10 5 -22 10 -25 6 -4 10 37 10 115 0 114 -10 148 -23 81
-8 -39 -44 -71 -79 -71 l-29 0 3 98 3 97 73 0 c71 0 75 -1 103 -33 16 -18 29
-41 29 -52 0 -10 5 -22 10 -25 6 -4 10 20 10 64 l0 71 -207 0 c-189 -1 -205
-2 -175 -15z"/>
<path d="M3063 2188 c15 -5 29 -19 32 -31 3 -12 4 -107 3 -212 l-3 -190 -30
-15 -30 -15 63 -3 c34 -2 90 -2 125 0 l62 3 -30 15 c-30 15 -30 16 -33 113 -1
53 1 97 5 97 4 0 42 -52 83 -115 l75 -115 75 1 c61 0 72 2 59 12 -15 11 -159
211 -159 220 0 3 14 10 30 17 70 29 102 114 64 169 -35 49 -85 61 -259 60
-119 0 -153 -3 -132 -11z m257 -26 c30 -25 39 -106 16 -150 -9 -18 -20 -32
-24 -32 -4 -1 -26 -5 -49 -9 l-43 -8 0 102 c0 56 3 105 7 108 13 14 71 7 93
-11z"/>
<path d="M3988 2185 l32 -14 -2 -208 c-3 -204 -3 -208 -26 -219 -43 -21 -34
-24 87 -24 79 0 120 4 116 10 -3 6 -15 10 -26 10 -32 0 -39 41 -39 228 0 191
6 216 53 225 12 2 -34 5 -103 5 -116 1 -123 0 -92 -13z"/>
<path d="M4256 2186 c17 -8 34 -24 37 -37 9 -31 7 -347 -2 -378 -3 -12 -20
-29 -36 -37 -27 -12 -13 -13 125 -11 174 3 216 14 278 78 34 35 62 109 62 164
0 55 -28 129 -62 164 -60 61 -76 66 -263 69 -152 2 -167 1 -139 -12z m273 -31
c42 -36 66 -105 66 -190 0 -93 -11 -138 -41 -174 -28 -34 -84 -56 -120 -47
l-24 6 0 209 c0 114 3 211 7 214 16 17 83 6 112 -18z"/>
<path d="M5230 2189 c13 -6 28 -15 32 -22 4 -7 8 -101 8 -210 l0 -197 -32 -20
-33 -20 136 0 c205 0 277 30 326 138 22 47 25 64 21 129 -6 95 -38 145 -117
186 -53 26 -60 27 -210 26 -113 0 -149 -3 -131 -10z m260 -24 c17 -9 40 -34
52 -58 20 -36 23 -57 23 -147 0 -148 -30 -202 -121 -217 -62 -10 -64 -4 -64
222 0 111 3 205 7 208 12 12 73 7 103 -8z"/>
<path d="M1800 1253 c-58 -149 -94 -225 -113 -245 l-29 -28 74 1 c72 1 73 1
41 15 -38 16 -38 15 -16 77 l17 47 83 0 83 0 15 -36 c23 -55 19 -78 -12 -91
-23 -9 -5 -11 92 -12 107 0 117 1 95 14 -20 10 -47 63 -125 244 -55 127 -104
231 -110 231 -5 -1 -48 -98 -95 -217z m100 -33 l29 -70 -70 0 c-38 0 -69 2
-69 4 0 2 14 41 31 86 36 92 32 93 79 -20z"/>
<path d="M3615 1451 c-184 -84 -193 -358 -14 -456 96 -52 215 -37 295 37 105
96 106 280 2 373 -22 20 -55 43 -74 51 -48 20 -160 18 -209 -5z m179 -30 c37
-38 56 -108 56 -203 0 -101 -15 -161 -50 -198 -23 -25 -36 -30 -75 -30 -86 0
-127 71 -128 221 0 159 42 239 125 239 36 0 50 -6 72 -29z"/>
<path d="M4175 1451 c-50 -22 -108 -86 -126 -137 -7 -22 -13 -69 -13 -105 0
-90 39 -161 113 -205 28 -18 62 -47 74 -65 47 -69 156 -103 256 -79 51 12 73
32 26 22 -13 -2 -36 -1 -50 2 -29 7 -95 63 -95 80 0 7 16 18 36 25 121 44 179
223 114 351 -25 48 -93 107 -139 120 -57 16 -151 12 -196 -9z m184 -36 c39
-45 52 -95 52 -200 0 -155 -38 -225 -124 -225 -95 0 -132 74 -125 248 3 85 8
116 26 149 27 51 44 62 98 63 35 0 47 -5 73 -35z"/>
<path d="M5570 1468 c0 -2 -41 -103 -90 -223 -66 -162 -97 -226 -118 -242
l-27 -23 75 0 c73 1 74 1 46 16 -30 17 -31 33 -7 97 10 27 12 27 95 27 l85 0
16 -52 c8 -28 15 -53 15 -55 0 -2 -15 -9 -32 -17 -31 -14 -26 -14 85 -15 l118
-1 -25 23 c-16 14 -60 102 -120 242 -52 121 -100 221 -105 223 -6 2 -11 2 -11
0z m9 -237 c17 -41 30 -76 27 -78 -2 -2 -33 -3 -69 -1 l-65 3 31 82 c17 46 34
79 38 75 4 -4 21 -40 38 -81z"/>
<path d="M508 1440 l32 -20 0 -193 c0 -201 -2 -212 -45 -235 -32 -18 240 -16
299 2 62 19 111 57 138 109 30 56 32 185 4 236 -51 95 -119 121 -320 121
l-141 0 33 -20z m253 -17 c16 -10 39 -38 52 -63 18 -38 22 -61 21 -145 0 -115
-22 -173 -74 -200 -35 -18 -81 -20 -98 -3 -13 13 -18 409 -5 421 13 13 75 7
104 -10z"/>
<path d="M1028 1445 l32 -14 0 -210 0 -211 -32 -14 c-30 -13 -13 -14 180 -15
163 -1 212 2 212 12 1 6 7 38 14 70 8 31 11 57 6 57 -4 0 -19 -17 -33 -39 -31
-46 -97 -81 -154 -81 -73 0 -73 0 -73 117 l0 105 28 -7 c46 -11 71 -33 82 -75
6 -22 13 -40 15 -40 3 0 5 54 5 121 0 77 -4 118 -10 114 -5 -3 -10 -15 -10
-26 0 -31 -44 -69 -80 -69 l-31 0 3 98 3 97 71 0 c82 0 105 -13 135 -80 l18
-40 0 73 1 72 -207 0 c-188 -1 -205 -2 -175 -15z"/>
<path d="M2206 1426 l34 -34 -1 -168 c-1 -93 -4 -180 -8 -193 -3 -12 -20 -29
-36 -36 -28 -12 -24 -13 53 -14 53 -1 81 3 77 9 -3 6 -12 10 -20 10 -8 0 -21
10 -29 22 -13 18 -16 53 -16 175 0 84 3 153 8 153 4 0 76 -86 161 -190 85
-105 161 -190 168 -190 10 0 13 47 13 230 l0 229 28 15 c26 15 23 15 -53 15
-78 -1 -79 -1 -48 -15 41 -18 44 -32 41 -173 l-3 -115 -124 152 -123 152 -78
0 -78 0 34 -34z"/>
<path d="M2710 1421 c0 -21 -3 -53 -6 -70 -8 -40 12 -42 21 -1 9 42 67 90 110
90 l35 0 -1 -187 c-2 -232 -4 -242 -49 -259 -31 -11 -21 -13 100 -13 135 -1
135 -1 100 17 l-35 17 -3 213 -2 212 25 0 c41 0 81 -26 99 -64 9 -19 16 -39
16 -45 0 -6 5 -11 10 -11 11 0 13 61 4 109 l-6 31 -209 0 -209 0 0 -39z"/>
<path d="M3208 1444 l32 -14 0 -210 0 -210 -32 -14 c-31 -13 -25 -14 92 -14
117 0 123 1 93 14 l-33 14 0 211 0 210 33 14 c30 13 23 14 -93 14 -117 -1
-123 -2 -92 -15z"/>
<path d="M4598 1445 l32 -14 1 -138 c1 -200 8 -239 51 -278 87 -80 258 -61
304 32 16 32 19 66 22 203 l3 165 27 22 27 23 -80 -1 c-73 -1 -77 -2 -52 -13
16 -7 33 -19 38 -27 15 -23 11 -315 -5 -352 -19 -46 -55 -67 -115 -67 -43 0
-53 4 -75 31 -26 30 -26 31 -26 215 l0 185 33 14 c30 13 23 14 -93 14 -116 0
-123 -1 -92 -14z"/>
<path d="M5110 1442 l35 -17 0 -205 0 -205 -35 -17 c-35 -17 -35 -17 95 -17
115 1 127 2 101 14 -17 7 -33 21 -37 31 -9 23 -11 350 -2 383 3 13 19 29 37
37 28 12 19 13 -99 14 l-130 0 35 -18z"/>
<path d="M2465 634 c-6 -2 -9 -47 -7 -114 3 -88 6 -110 18 -110 11 0 14 22 14
115 0 63 -3 115 -7 114 -5 0 -12 -2 -18 -5z"/>
<path d="M2872 628 c-19 -19 -14 -63 8 -83 l20 -18 -20 -22 c-42 -44 -16 -105
44 -105 64 0 87 62 41 110 l-25 27 20 18 c31 28 21 85 -14 85 -6 0 -5 -5 2
-12 18 -18 15 -53 -6 -71 -17 -16 -20 -15 -40 6 -25 26 -28 47 -10 65 7 7 8
12 2 12 -6 0 -15 -5 -22 -12z m80 -149 c16 -22 18 -30 9 -48 -13 -23 -50 -28
-69 -9 -16 16 -15 61 0 76 18 18 38 11 60 -19z"/>
<path d="M3313 613 c-27 -40 -25 -143 3 -180 29 -39 79 -39 108 0 41 56 20
207 -30 207 -14 0 -14 -2 0 -15 30 -30 33 -168 4 -202 -14 -17 -43 -17 -57 1
-29 34 -25 170 5 201 14 13 14 15 0 15 -9 0 -24 -12 -33 -27z"/>
<path d="M3764 618 c-19 -23 -19 -23 2 -5 27 22 47 22 68 -2 20 -22 11 -49
-26 -75 l-22 -16 26 0 c44 0 64 -56 31 -92 -9 -10 -11 -18 -5 -18 17 0 42 42
42 72 0 16 -9 37 -20 48 -19 19 -19 22 -5 36 18 18 20 45 3 62 -20 20 -73 14
-94 -10z"/>
<path d="M3752 418 c3 -7 20 -14 39 -16 l34 -2 -34 15 c-40 18 -44 18 -39 3z"/>
</g>
</svg>
